<?xml version="1.0" encoding="UTF-8" standalone="no"?>
<!-- Created with Inkscape (http://www.inkscape.org/) -->

<svg
   version="1.1"
   id="svg2"
   width="322.47931"
   height="403.10843"
   viewBox="0 0 322.47931 403.10843"
   sodipodi:docname="autoretratolinea.svg"
   inkscape:version="1.1.1 (1:1.1+202109281949+c3084ef5ed)"
   xmlns:inkscape="http://www.inkscape.org/namespaces/inkscape"
   xmlns:sodipodi="http://sodipodi.sourceforge.net/DTD/sodipodi-0.dtd"
   xmlns:xlink="http://www.w3.org/1999/xlink"
   xmlns="http://www.w3.org/2000/svg"
   xmlns:svg="http://www.w3.org/2000/svg">
  <defs
     id="defs6">
    <linearGradient
       inkscape:collect="always"
       id="linearGradient112525">
      <stop
         style="stop-color:#000000;stop-opacity:1;"
         offset="0"
         id="stop112521" />
      <stop
         style="stop-color:#000000;stop-opacity:0;"
         offset="1"
         id="stop112523" />
    </linearGradient>
    <linearGradient
       inkscape:collect="always"
       xlink:href="#linearGradient112525"
       id="linearGradient112527"
       x1="151.52202"
       y1="267.97018"
       x2="148.16846"
       y2="262.60934"
       gradientUnits="userSpaceOnUse" />
    <linearGradient
       inkscape:collect="always"
       xlink:href="#linearGradient112525"
       id="linearGradient112599"
       x1="194.20149"
       y1="280.18884"
       x2="190.23911"
       y2="272.46017"
       gradientUnits="userSpaceOnUse" />
  </defs>
  <sodipodi:namedview
     id="namedview4"
     pagecolor="#ffffff"
     bordercolor="#666666"
     borderopacity="1.0"
     inkscape:pageshadow="2"
     inkscape:pageopacity="0.0"
     inkscape:pagecheckerboard="0"
     showgrid="false"
     inkscape:zoom="0.70710678"
     inkscape:cx="192.33304"
     inkscape:cy="135.7645"
     inkscape:window-width="881"
     inkscape:window-height="706"
     inkscape:window-x="0"
     inkscape:window-y="25"
     inkscape:window-maximized="0"
     inkscape:current-layer="layer8" />
  <g
     inkscape:groupmode="layer"
     id="layer8"
     inkscape:label="Image 6"
     transform="translate(-18.650519,-143.51763)">
    <path
       style="display:inline;fill:#ff6f91;fill-opacity:1;stroke:#000000;stroke-width:0;stroke-linecap:butt;stroke-linejoin:miter;stroke-miterlimit:4;stroke-dasharray:none;stroke-dashoffset:0;stroke-opacity:1"
       d="m 142.81823,222.14039 c -0.33125,32.23603 -9.41302,49.24639 -21.42445,78.39986 -2.17007,5.208 -16.84761,24.33998 -20.56332,28.24148 -0.65173,0.68433 -3.065233,5.42539 -3.667793,5.14422 -4.184608,-1.9526 -4.452695,-8.61597 -8.28822,-10.91717 -9.632152,-5.779 -20.548116,-23.42459 -23.054642,-33.95185 -0.752106,-3.1588 0.06752,-8.13282 1.476642,-11.03149 1.929388,-3.96891 14.809851,-2.82587 19.100126,-6.50332 1.790485,-1.53474 10.693415,-8.65492 11.957333,-10.67709 2.048354,-3.27721 3.121624,-8.01705 4.694654,-11.57006 3.04777,-6.884 1.68972,-22.44843 2.02128,-30.00795 0.39201,-8.9376 -1.13951,-15.8368 -11.804257,-19.20448 -7.621604,0.0729 -26.897957,-8.04488 -32.547717,-4.35617 l 7.808645,-14.01761 c 4.223457,-7.58169 22.335896,-5.09273 25.005497,-13.36841 1.779431,-5.51618 5.086942,-5.83562 6.393125,-11.47805 0,0 -8.755769,-13.32467 -8.642237,-13.32467 0.852312,0 11.613764,2.87143 12.215024,3.73034 1.37867,1.96945 3.42025,3.24639 4.90627,5.08706 4.5274,5.6079 8.90743,13.54025 15.52853,16.97591 11.28547,5.85598 25.92666,4.82941 35.88255,-1.36187 2.06937,-1.28689 1.07379,-7.24438 2.9864,-8.69793 0.1578,-0.11993 1.85729,-0.85362 1.81008,-0.97167 -0.30078,-0.7522 2.67478,7.9692 2.58479,8.11485 -4.04538,6.54759 -5.39517,18.06156 -11.97664,22.95024 -8.97845,10.84122 -8.82263,20.89695 -12.40167,32.79583 z"
       id="path134462"
       sodipodi:nodetypes="ccsssssssssccssssssssssccc" />
    <path
       style="fill:none;stroke:none;stroke-width:1px;stroke-linecap:butt;stroke-linejoin:miter;stroke-opacity:1"
       d="m 281.18284,362.20789 c -3.22502,9.3561 1.91003,6.18147 1.2861,3.25803 -0.2437,-1.14184 -0.8574,-2.17202 -1.2861,-3.25803 z"
       id="path140470" />
    <path
       style="fill:none;stroke:none;stroke-width:1px;stroke-linecap:butt;stroke-linejoin:miter;stroke-opacity:1"
       d="m 284.0831,360.72147 c -0.0994,1.09137 0.44185,1.4419 0.91099,2.28632 0.11212,0.20181 0.28283,0.41087 0.34534,0.63588 0.11713,0.42164 0.11046,1.01748 0.4287,1.36465 0.2816,0.30719 1.37714,0.36574 1.66122,0.1286 0.31458,-0.26259 0.53503,-0.61742 0.8574,-0.8788 0.3315,-0.26877 0.76327,-0.48088 1.05985,-0.78592 0.15491,-0.15932 0.25325,-0.46946 0.35725,-0.66446 0.2186,-0.40986 0.54761,-0.94073 0.35726,-1.44324 -0.0611,-0.16127 -0.23644,-0.23526 -0.34535,-0.35724 -0.12992,-0.14551 -0.24686,-0.37207 -0.40488,-0.48584 -0.77258,-0.55624 -1.37931,0.3914 -2.10779,0.42154 -0.20062,0.008 -0.21435,-0.33717 -0.31557,-0.46441 -0.33126,-0.41642 -1.36225,-0.26185 -1.81007,-0.27865 -0.51355,-0.0193 -1.25073,-0.40137 -0.99435,0.52157 z"
       id="path140747" />
    <g
       id="g141807"
       transform="translate(10.36407,-22.00782)">
      <path
         style="opacity:1;fill:#00ffff;fill-opacity:1;fill-rule:evenodd;stroke:none;stroke-width:0.1;stroke-miterlimit:4;stroke-dasharray:none;stroke-dashoffset:0;stroke-opacity:0.999989"
         d="m 273.71903,382.72929 c -1.93232,-1.02204 -8.4576,-6.56272 -14.50062,-12.31261 l -10.98732,-10.45435 -5.89333,-13.39129 C 231.16034,321.17285 229.114,311.70229 228.05605,280.4748 c -0.58965,-17.40477 1.31246,-53.07233 3.52664,-66.13005 l 0.64965,-3.8312 2.99873,4.74528 c 3.89984,6.17124 16.88465,17.57226 24.24493,21.28772 3.18473,1.60765 9.72026,4.12167 14.52338,5.58671 4.80313,1.46505 8.73296,2.92217 8.73296,3.23805 0,0.31588 -2.96721,5.68411 -6.5938,11.92939 -8.33042,14.34564 -8.74294,16.91218 -3.97752,24.7464 4.42147,7.26879 4.57015,10.94993 0.66024,16.3474 -3.1757,4.38392 -6.30986,6.86686 -12.83892,10.17119 l -4.25,2.15091 0.006,13.22967 c 0.01,22.86505 1.86294,28.67587 15.06041,47.22968 8.67619,12.19752 9.4318,13.51471 7.71898,13.4558 -0.70685,-0.0243 -2.86617,-0.88041 -4.79849,-1.90246 z"
         id="path140905" />
      <path
         style="opacity:1;fill:#00ffff;fill-opacity:1;fill-rule:evenodd;stroke:#000000;stroke-width:0;stroke-miterlimit:4;stroke-dasharray:none;stroke-dashoffset:0;stroke-opacity:0.999989"
         d="m 280.4679,361.61175 c -0.11433,-0.30071 -0.13747,-0.76479 -0.0672,-1.34831 0.0732,-0.60793 0.30744,-1.73593 0.48244,-2.32281 l 0.0988,-0.33133 0.15374,0.34375 c 0.0846,0.18906 0.24191,0.59687 0.34968,0.90625 0.36535,1.04885 0.22529,1.90534 -0.42063,2.57222 -0.3559,0.36745 -0.50812,0.41342 -0.59678,0.18023 z"
         id="path140944" />
      <path
         style="opacity:1;fill:#00ffff;fill-opacity:1;fill-rule:evenodd;stroke:none;stroke-width:0;stroke-miterlimit:4;stroke-dasharray:none;stroke-dashoffset:0;stroke-opacity:0.999989"
         d="m 284.08309,360.72129 c -0.18615,-0.0358 -0.29459,-0.26197 -0.39327,-0.82021 -0.0846,-0.47854 -0.25414,-0.81856 -0.9361,-1.87713 -0.29624,-0.45983 -0.33974,-0.56898 -0.36122,-0.90625 l -0.0244,-0.38346 0.69378,0.008 c 1.14301,0.0129 1.05239,-0.009 1.23636,0.29576 0.21256,0.35192 0.34245,0.42758 0.72888,0.42459 0.24658,-0.002 0.44442,-0.0655 0.89406,-0.28718 0.31757,-0.1566 0.61493,-0.28473 0.66079,-0.28473 0.13682,0 0.73653,0.72492 0.73334,0.88644 -0.002,0.0796 -0.13517,0.412 -0.29688,0.73856 -0.27247,0.55026 -0.32605,0.61664 -0.73141,0.90625 -0.24057,0.17187 -0.67254,0.54453 -0.95992,0.82812 -0.51015,0.50342 -0.52939,0.51543 -0.8126,0.50712 -0.15954,-0.005 -0.35367,-0.0207 -0.4314,-0.0357 z"
         id="path140983" />
    </g>
  </g>
  <g
     inkscape:groupmode="layer"
     id="layer4"
     inkscape:label="Image 3"
     style="display:inline"
     transform="translate(-18.650519,-143.51763)">
    <path
       style="fill:#f9f9f9;fill-opacity:1;fill-rule:evenodd;stroke-width:0.5;stroke-miterlimit:4;stroke-dasharray:none"
       id="path126251"
       sodipodi:type="arc"
       sodipodi:cx="178.11066"
       sodipodi:cy="315.20221"
       sodipodi:rx="79.229408"
       sodipodi:ry="114.01997"
       sodipodi:start="0"
       sodipodi:end="0.17693799"
       sodipodi:open="true"
       sodipodi:arc-type="arc"
       d="m 257.34007,315.20221 a 79.229408,114.01997 0 0 1 -1.23699,20.06936" />
    <path
       style="fill:#f9f9f9;fill-opacity:1;fill-rule:evenodd;stroke-width:0.5;stroke-miterlimit:4;stroke-dasharray:none"
       id="path126277"
       sodipodi:type="arc"
       sodipodi:cx="168.8222"
       sodipodi:cy="308.84143"
       sodipodi:rx="40.802414"
       sodipodi:ry="78.310143"
       sodipodi:start="0"
       sodipodi:end="0.17693799"
       sodipodi:open="true"
       sodipodi:arc-type="arc"
       d="m 209.62462,308.84143 a 40.802414,78.310143 0 0 1 -0.63704,13.78385" />
    <path
       id="path134250"
       style="fill:#ffffff;fill-rule:evenodd;stroke:#000000;stroke-width:0;stroke-miterlimit:4;stroke-dasharray:none"
       d="m 155.00956,409.92168 c -34.2145,-29.05914 -49.53188,-105.22655 -34.21253,-170.12575 15.31933,-64.8992 55.4744,-93.9548 89.68943,-64.89793 7.5091,6.37705 14.10804,15.02318 19.6727,25.3213 19.79063,36.62507 26.49926,94.14547 14.54296,144.80218 -15.31814,64.90021 -55.47267,93.95847 -89.68824,64.90387 -9.2e-4,-10e-4 -0.003,-0.002 -0.004,-0.004 z"
       sodipodi:nodetypes="cssssccc" />
    <path
       id="path134252"
       style="fill:#ffffff;fill-rule:evenodd;stroke:#000000;stroke-width:0;stroke-miterlimit:4;stroke-dasharray:none"
       d="m 155.00524,409.91801 c -34.2145,-29.05914 -49.53188,-105.22655 -34.21253,-170.12575 15.31933,-64.8992 55.4744,-93.9548 89.68943,-64.89793 7.5091,6.37705 14.10804,15.02318 19.6727,25.3213 19.79063,36.62507 26.49926,94.14547 14.54296,144.80218 -15.31814,64.90021 -55.47267,93.95847 -89.68824,64.90387 -9.2e-4,-10e-4 -0.003,-0.002 -0.004,-0.004 z"
       sodipodi:nodetypes="cssssccc" />
    <path
       id="path134254"
       style="fill:#ffffff;fill-rule:evenodd;stroke:#000000;stroke-width:0;stroke-miterlimit:4;stroke-dasharray:none"
       d="m 155.01356,409.92568 c -34.2145,-29.05914 -49.53188,-105.22655 -34.21253,-170.12575 15.31933,-64.8992 55.4744,-93.9548 89.68943,-64.89793 7.5091,6.37705 14.10804,15.02318 19.6727,25.3213 19.79063,36.62507 26.49926,94.14547 14.54296,144.80218 -15.31814,64.90021 -55.47267,93.95847 -89.68824,64.90387 -9.2e-4,-10e-4 -0.003,-0.002 -0.004,-0.004 z"
       sodipodi:nodetypes="cssssccc" />
    <path
       id="path134256"
       style="fill:#ffffff;fill-rule:evenodd;stroke:#000000;stroke-width:0;stroke-miterlimit:4;stroke-dasharray:none"
       d="m 155.01756,409.92968 c -34.2145,-29.05914 -49.53188,-105.22655 -34.21253,-170.12575 15.31933,-64.8992 55.4744,-93.9548 89.68943,-64.89793 7.5091,6.37705 14.10804,15.02318 19.6727,25.3213 19.79063,36.62507 26.49926,94.14547 14.54296,144.80218 -15.31814,64.90021 -55.47267,93.95847 -89.68824,64.90387 -9.2e-4,-0.001 -0.003,-0.002 -0.004,-0.004 z"
       sodipodi:nodetypes="cssssccc" />
    <path
       id="path134258"
       style="fill:#ffffff;fill-rule:evenodd;stroke:#000000;stroke-width:0;stroke-miterlimit:4;stroke-dasharray:none"
       d="m 155.02156,409.93368 c -34.2145,-29.05914 -49.53188,-105.22655 -34.21253,-170.12575 15.31933,-64.8992 55.4744,-93.9548 89.68943,-64.89793 7.5091,6.37705 14.10804,15.02318 19.6727,25.3213 19.79063,36.62507 26.49926,94.14547 14.54296,144.80218 -15.31814,64.90021 -55.47267,93.95847 -89.68824,64.90387 -9.2e-4,-10e-4 -0.003,-0.002 -0.004,-0.004 z"
       sodipodi:nodetypes="cssssccc" />
    <path
       id="path134260"
       style="fill:#ffffff;fill-rule:evenodd;stroke:#000000;stroke-width:0;stroke-miterlimit:4;stroke-dasharray:none"
       d="m 155.02556,409.93768 c -34.2145,-29.05914 -49.53188,-105.22655 -34.21253,-170.12575 15.31933,-64.8992 55.4744,-93.9548 89.68943,-64.89793 7.5091,6.37705 14.10804,15.02318 19.6727,25.3213 19.79063,36.62507 26.49926,94.14547 14.54296,144.80218 -15.31814,64.90021 -55.47267,93.95847 -89.68824,64.90387 -9.2e-4,-10e-4 -0.003,-0.002 -0.004,-0.004 z"
       sodipodi:nodetypes="cssssccc" />
    <path
       id="path134262"
       style="fill:#ffffff;fill-rule:evenodd;stroke:#000000;stroke-width:0;stroke-miterlimit:4;stroke-dasharray:none"
       d="m 155.02556,409.93768 c -34.2145,-29.05914 -49.53188,-105.22655 -34.21253,-170.12575 15.31933,-64.8992 55.4744,-93.9548 89.68943,-64.89793 7.5091,6.37705 14.10804,15.02318 19.6727,25.3213 19.79063,36.62507 26.49926,94.14547 14.54296,144.80218 -15.31814,64.90021 -55.47267,93.95847 -89.68824,64.90387 -9.2e-4,-10e-4 -0.003,-0.002 -0.004,-0.004 z"
       sodipodi:nodetypes="cssssccc" />
    <path
       id="path134264"
       style="fill:#ffffff;fill-rule:evenodd;stroke:#000000;stroke-width:0;stroke-miterlimit:4;stroke-dasharray:none"
       d="m 155.02956,409.94168 c -34.2145,-29.05914 -49.53188,-105.22655 -34.21253,-170.12575 15.31933,-64.8992 55.4744,-93.9548 89.68943,-64.89793 7.5091,6.37705 14.10804,15.02318 19.6727,25.3213 19.79063,36.62507 26.49926,94.14547 14.54296,144.80218 -15.31814,64.90021 -55.47267,93.95847 -89.68824,64.90387 -9.2e-4,-0.001 -0.003,-0.002 -0.004,-0.004 z"
       sodipodi:nodetypes="cssssccc" />
    <path
       id="path134266"
       style="fill:#ffffff;fill-rule:evenodd;stroke:#000000;stroke-width:0;stroke-miterlimit:4;stroke-dasharray:none"
       d="m 155.03356,409.94568 c -34.2145,-29.05914 -49.53188,-105.22655 -34.21253,-170.12575 15.31933,-64.8992 55.4744,-93.9548 89.68943,-64.89793 7.5091,6.37705 14.10804,15.02318 19.6727,25.3213 19.79063,36.62507 26.49926,94.14547 14.54296,144.80218 -15.31814,64.90021 -55.47267,93.95847 -89.68824,64.90387 -9.2e-4,-10e-4 -0.003,-0.002 -0.004,-0.004 z"
       sodipodi:nodetypes="cssssccc" />
    <path
       id="path134268"
       style="fill:#ffffff;fill-rule:evenodd;stroke:#000000;stroke-width:0;stroke-miterlimit:4;stroke-dasharray:none"
       d="M 155.03788,409.94935 C 120.82338,380.89021 105.506,304.7228 120.82535,239.8236 c 15.31933,-64.8992 55.4744,-93.9548 89.68943,-64.89793 7.5091,6.37705 14.10804,15.02318 19.6727,25.3213 19.79063,36.62507 26.49926,94.14547 14.54296,144.80218 -15.31814,64.90021 -55.47267,93.95847 -89.68824,64.90387 -9.2e-4,-10e-4 -0.003,-0.002 -0.004,-0.004 z"
       sodipodi:nodetypes="cssssccc" />
    <path
       id="path134270"
       style="fill:#ffffff;fill-rule:evenodd;stroke:#000000;stroke-width:0;stroke-miterlimit:4;stroke-dasharray:none"
       d="m 155.0422,409.95302 c -34.2145,-29.05914 -49.53188,-105.22655 -34.21253,-170.12575 15.31933,-64.8992 55.4744,-93.9548 89.68943,-64.89793 7.5091,6.37705 14.10804,15.02318 19.6727,25.3213 19.79063,36.62507 26.49926,94.14547 14.54296,144.80218 -15.31814,64.90021 -55.47267,93.95847 -89.68824,64.90387 -9.2e-4,-10e-4 -0.003,-0.002 -0.004,-0.004 z"
       sodipodi:nodetypes="cssssccc" />
    <path
       id="path134272"
       style="fill:#ffffff;fill-rule:evenodd;stroke:#000000;stroke-width:0;stroke-miterlimit:4;stroke-dasharray:none"
       d="m 155.04652,409.95669 c -34.2145,-29.05914 -49.53188,-105.22655 -34.21253,-170.12575 15.31933,-64.8992 55.4744,-93.9548 89.68943,-64.89793 7.5091,6.37705 14.10804,15.02318 19.6727,25.3213 19.79063,36.62507 26.49926,94.14547 14.54296,144.80218 -15.31814,64.90021 -55.47267,93.95847 -89.68824,64.90387 -9.2e-4,-10e-4 -0.003,-0.002 -0.004,-0.004 z"
       sodipodi:nodetypes="cssssccc" />
    <path
       id="path134274"
       style="fill:#ffffff;fill-rule:evenodd;stroke:#000000;stroke-width:0;stroke-miterlimit:4;stroke-dasharray:none"
       d="m 155.05084,409.96036 c -34.2145,-29.05914 -49.53188,-105.22655 -34.21253,-170.12575 15.31933,-64.8992 55.4744,-93.9548 89.68943,-64.89793 7.5091,6.37705 14.10804,15.02318 19.6727,25.3213 19.79063,36.62507 26.49926,94.14547 14.54296,144.80218 -15.31814,64.90021 -55.47267,93.95847 -89.68824,64.90387 -9.2e-4,-10e-4 -0.003,-0.002 -0.004,-0.004 z"
       sodipodi:nodetypes="cssssccc" />
    <path
       id="path127023"
       style="fill:#ffffff;fill-rule:evenodd;stroke:#000000;stroke-width:0;stroke-miterlimit:4;stroke-dasharray:none"
       d="m 154.56681,408.78549 c -34.2145,-29.05914 -49.53188,-105.22655 -34.21253,-170.12575 15.31933,-64.8992 55.4744,-93.9548 89.68943,-64.89793 7.5091,6.37705 14.10804,15.02318 19.6727,25.3213 19.79063,36.62507 26.49926,94.14547 14.54296,144.80218 -15.31814,64.90021 -55.47267,93.95847 -89.68824,64.90387 -9.2e-4,-10e-4 -0.003,-0.002 -0.004,-0.004 z"
       sodipodi:nodetypes="cssssccc" />
  </g>
  <g
     inkscape:groupmode="layer"
     id="layer1"
     inkscape:label="Image 1"
     style="display:inline"
     transform="translate(-18.650519,-143.51763)">
    <path
       style="fill:none;stroke:#000000;stroke-width:1px;stroke-linecap:butt;stroke-linejoin:miter;stroke-opacity:1"
       d="m 19.150332,413.86159 c 4.869149,-7.97234 15.447615,-12.10883 23.219617,-17.01738 8.333303,-5.26306 7.784108,-2.85661 16.000109,-5.48554 3.833534,-1.22665 7.483489,-3.39634 11.149911,-5.01729 4.100962,-1.81307 8.243075,-2.14818 12.209132,-4.61588 4.978786,-3.09781 15.270392,-9.24792 21.129069,-9.83382 2.87944,-0.28796 6.29969,-1.91786 6.29969,-1.67242 0,14.30853 -4.86606,28.42768 -8.36242,42.41258 -1.502988,6.01174 -4.000737,11.28609 -4.292721,17.59383 -0.08639,1.86634 -2.675966,6.95725 -2.675966,6.95725 0,0 5.300094,0.0768 6.132442,0.13381 2.496475,0.17113 5.120315,-0.18459 7.581935,0.20068 7.78622,1.21863 17.40832,3.67347 25.08728,0.6021 3.17067,-1.26818 6.13973,-3.38463 8.64117,-5.55246 0.188,-0.16293 1.99952,-1.61449 2.06273,-1.53864 1.251,1.5012 5.67287,13.98617 -2.78747,17.59388 5.44861,1.11828 9.00218,-1.97658 12.43214,-0.66898 5.57593,2.23025 12.24483,2.65405 16.50186,7.02418 2.4997,2.56611 6.49894,9.18656 6.49894,9.18656"
       id="path861"
       sodipodi:nodetypes="cssssssssccssssccsc" />
    <path
       style="fill:none;stroke:#000000;stroke-width:1px;stroke-linecap:butt;stroke-linejoin:miter;stroke-opacity:1"
       d="m 164.46137,509.16388 c 0.0445,-5.58468 -0.59891,-11.67778 0.27875,-17.2594 1.88284,-11.97432 12.731,-32.23529 20.68306,-41.2753 6.36137,-7.2317 12.52047,-14.46607 17.39386,-22.94557 1.40154,-2.43862 1.71917,-5.26723 3.12196,-7.69316 2.89456,-5.00573 7.10122,-9.01287 9.42167,-14.38279 1.18035,-2.73152 4.96346,-14.85304 6.29971,-16.45661"
       id="path863"
       sodipodi:nodetypes="csssssc" />
    <path
       style="fill:none;stroke:#000000;stroke-width:1px;stroke-linecap:butt;stroke-linejoin:miter;stroke-opacity:1"
       d="m 164.46137,509.16388 c 2.90382,-11.44092 8.44134,-28.76272 22.29982,-40.07121 6.44965,-5.26289 13.99778,-6.73416 20.90605,-10.97107 3.73526,-2.29088 7.96521,-4.92537 12.0419,-6.55588 0.23776,-0.0951 1.72823,-0.23109 1.72823,-0.53518 0,-2.265 -7.96997,-15.27252 -7.35894,-16.18899 0.57565,-0.86342 3.17627,-1.86032 4.12548,-2.2745 4.44301,-1.93867 9.71923,1.64514 13.77011,2.74279 2.7809,0.75353 18.22756,1.20468 21.01758,0.53517 2.15151,-0.51629 4.21143,-1.44447 6.35545,-1.87313 0.18639,-0.0373 2.89898,-0.71575 2.89898,-0.80273 -4.40821,-0.79338 -4.90597,-3.94695 -4.90597,-3.94695 -1.43744,-3.83319 -2.42303,-12.33519 -3.06622,-16.65729 -0.50698,-3.40678 -2.75422,-23.07773 -2.04237,-27.06391 0.40041,-2.24225 -0.95782,-7.97795 -0.95782,-7.97795 0,0 -1.00625,-3.50756 -3.00057,-6.1988 -2.00686,-2.70814 -3.97652,-3.89488 -5.55276,-5.74363 -0.87015,-1.02058 -2.26737,-0.42443 -3.46768,-0.42443 -1.74545,0 -4.80254,7.49073 -5.55038,9.21067 -0.94996,2.18477 -2.47576,4.10316 -3.84671,5.95381 -2.21254,2.98673 -8.19517,8.83038 -8.19517,8.83038 v 0 0"
       id="path875"
       sodipodi:nodetypes="csssssssssccsscsssssccc" />
    <path
       style="fill:none;stroke:#000000;stroke-width:1px;stroke-linecap:butt;stroke-linejoin:miter;stroke-opacity:1"
       d="m 245.57613,368.36217 c 9.82181,3.3775 39.99059,16.77835 45.82269,21.26429 2.08604,1.60456 9.60795,3.65427 14.3517,7.21148 3.12049,2.33997 6.49515,4.32277 9.78401,6.47323 2.20783,1.44363 5.63586,3.29242 7.44677,4.70954 4.77493,3.73661 8.21466,3.72099 12.55438,7.77149 1.2324,1.15026 2.20983,2.21596 3.03141,3.5962 1.88804,3.17189 2.06273,5.37683 2.06273,9.36556"
       id="path877"
       sodipodi:nodetypes="cssssssc" />
    <path
       style="fill:none;stroke:#000000;stroke-width:1px;stroke-linecap:butt;stroke-linejoin:miter;stroke-opacity:1"
       d="m 108.93486,371.3565 c -1.38938,-6.23891 7.51713,-8.66416 8.69693,-12.91108 0.34122,-1.22829 0.44599,-2.40427 0.44599,-3.67931 0,-0.29048 -0.34623,-0.86966 -0.0558,-0.86966 0.77388,0 1.92895,2.7361 2.22999,3.27794 4.50771,8.11367 3.2262,16.16103 6.41119,24.35043 3.00367,7.7232 8.28963,13.85498 12.87813,20.60419 5.66985,8.33975 11.28317,18.80418 17.83984,26.35734 0.74741,0.86099 1.75605,1.28769 2.45299,2.20762 3.64453,4.81062 11.82188,15.68033 13.93737,21.40692 0,0 1.56515,1.58058 2.20629,12.06316"
       id="path881"
       sodipodi:nodetypes="cssscsssssc" />
    <path
       style="fill:none;stroke:#000000;stroke-width:0.9;stroke-linecap:butt;stroke-linejoin:miter;stroke-miterlimit:4;stroke-dasharray:none;stroke-opacity:1"
       d="m 117.57604,268.26858 c -0.38259,-2.2604 -1.73827,-8.67045 -5.68645,-7.09106 -0.69206,0.27685 -0.76488,1.78484 -0.83624,2.34141 -0.46704,3.64284 -1.05742,7.6766 0.0557,11.23866 0.87427,2.79759 2.28562,5.68478 2.50874,8.62967 0.65714,8.67341 -1.88524,17.5196 -3.06622,26.02285 -0.67975,4.89429 -0.65727,10.04556 -0.83625,14.98487 -0.10796,2.97929 -1.17327,6.06518 -0.83624,9.03106 0.52534,4.62296 4.37695,8.51374 6.52269,12.37591 1.76565,3.17806 3.12126,6.68842 4.90596,9.90073 4.52328,8.14152 4.39201,18.26108 9.70041,26.22353 2.96379,4.4456 8.20202,12.98754 12.86609,16.38544 1.46907,1.07025 4.08676,5.18137 5.43891,6.39828 6.64801,5.9828 9.57538,14.30189 15.50058,20.9379 2.55998,2.86709 4.71178,6.08728 6.96241,9.36663 3.75514,5.47151 4.45197,5.04801 6.61909,11.33333 1.05616,3.0632 -2.0459,5.3518 -2.0459,5.3518 6.05658,-1.79115 8.34897,-6.6348 11.01156,-11.16104 1.16986,-1.9887 2.4516,-4.57137 3.62597,-6.58441 3.35082,-5.7438 8.86396,-8.77716 12.98027,-14.00706 3.25678,-4.13786 5.55866,-8.34559 8.9928,-12.46629 2.69472,-3.23345 2.62491,-7.70425 4.18122,-11.43937 1.47489,-3.5397 3.83303,-6.85912 5.74219,-10.16829 2.96891,-5.14605 9.0229,-12.19101 12.98963,-16.72422 6.81129,-7.78403 13.9273,-21.60407 15.89166,-31.62143 0.43307,-2.20843 1.73723,-18.98798 1.11194,-22.36425 -0.313,-1.69007 -0.36598,-3.45425 -0.66898,-5.15105 -0.14683,-0.82224 -0.39025,-3.31043 -0.39025,-2.47518 0,2.18644 2.60414,2.62422 3.06622,0.26759 0.89016,-4.53992 -0.0942,-10.1666 -0.39026,-14.78419 -0.37429,-5.8388 -0.96841,-11.66873 0.16725,-17.46005 0.57719,-2.9434 4.04191,-7.4246 3.62372,-10.43591 -0.23631,-1.7016 -4.55634,-3.53554 -6.13244,-2.67586 -0.50864,0.27743 -0.579,1.13212 -1.0035,1.47171 -0.26159,0.20927 0.0343,-0.66913 0.0558,-1.00344 0.13663,-2.13175 0.0369,-3.84064 0.0404,-6.01359 0.005,-3.12342 -0.005,-6.71865 0.0711,-9.43958 0.20525,-7.38671 2.05895,-14.17323 2.42549,-21.64832 0.21668,-4.41889 -1.43784,-8.22978 -2.46674,-12.42751 -2.00516,-8.18067 -0.95975,-16.73938 -4.36296,-24.59262 -2.05852,-4.75026 -3.84067,-8.39189 -8.14572,-12.0815 -1.07695,-0.92299 -5.13097,-3.74616 -6.4162,-4.3245 -3.59604,-1.61817 -4.27483,-3.26793 -8.73225,-4.70794 -3.50673,-1.13288 -5.7707,-1.10741 -8.9848,-3.03579 -2.04078,-1.22443 -3.4216,-3.19029 -5.90943,-4.01382 -3.92871,-1.30048 -25.97243,-5.15318 -28.54374,-4.34828 -3.76334,1.17803 -6.61117,4.59984 -10.25792,5.88691 -3.71788,1.31218 -8.13467,0.0124 -11.54016,3.07725 -2.74123,2.46701 -4.79612,6.29513 -8.30667,7.82694 -4.0611,1.77203 -8.02374,2.00619 -12.32064,2.74277 -0.37061,0.0635 -1.61817,0.6342 -1.95123,0.33446 -0.38205,-0.34382 -0.97305,-1.47788 -1.17074,-1.00344 -1.79403,4.30549 0.95622,10.18976 -2.29097,16.60748 -5.27709,12.32524 -8.21969,14.2919 -8.92922,20.46486 0.30354,3.46003 -1.86106,10.43708 -2.32694,13.90301 -1.53254,11.40149 -4.10697,23.40599 -4.62721,35.18769 -0.0912,2.06487 1.57224,5.08451 2.11848,6.95725 z"
       id="path883"
       sodipodi:nodetypes="sssssssssssssssssssssssssssssssssscsssssssssssssssssccssss" />
    <path
       style="fill:none;stroke:#000000;stroke-width:0.7;stroke-linecap:butt;stroke-linejoin:miter;stroke-miterlimit:4;stroke-dasharray:none;stroke-opacity:1"
       d="m 109.92187,318.0662 c 0.0248,-2.43979 1.31096,-5.5498 2.07922,-7.92024 1.08371,-3.34376 1.16329,-6.87033 1.8885,-11.02795 1.0891,-6.24375 1.36248,-8.07494 3.03902,-14.78342 0.27547,-1.10226 1.14379,-15.68523 0.60963,-15.68523 -0.85186,0 3.13981,22.18602 3.38277,23.70206 1.54048,9.61248 0.5375,19.32808 3.17772,28.83252 2.45658,8.84335 9.09994,15.75267 14.66212,22.74491 4.18889,5.26586 5.68866,9.91159 9.26899,15.57487 1.95563,3.09335 3.80128,7.85227 5.46175,11.12564 1.24989,2.464 0.67506,2.26311 2.3191,4.51769 3.06908,4.20883 13.61698,6.21604 14.57738,2.82541 1.39428,-4.92249 3.07991,-17.41219 1.98123,-22.07824 -0.0633,-0.26881 2.33315,2.0738 2.33315,2.0738 0.86579,0.47951 1.14597,0.009 2.10479,0.21535 1.87345,0.40319 4.76449,0.1676 6.56003,0.0439 0.69677,-0.048 6.15777,-1.73763 6.64034,-1.50603 0.79395,0.38104 0.13132,1.07115 0.14531,1.80947 0.31137,16.43195 8.78235,23.28192 15.02967,19.50384 5.30874,-3.21048 8.71,-19.9808 11.58639,-30.91105 2.4688,-9.38138 9.47692,-11.5036 14.95493,-16.55993 8.01127,-7.39456 10.52371,-15.81022 12.79377,-26.70595 1.43832,-6.90358 2.25767,-13.51144 2.84321,-20.53731 0.13692,-1.64284 0.12505,-3.31688 0.33449,-4.95037 0.007,-0.0564 -0.3945,-10.34203 -0.57851,-10.34203 -0.26645,0 1.54567,13.38541 1.63777,13.75378 0.57901,2.31597 0.39023,4.71567 0.39023,7.09105 0,4.17459 -1.53787,9.88535 -0.27873,13.91453 0.55332,1.77059 2.39952,7.29901 2.39952,7.29901"
       id="path885"
       sodipodi:nodetypes="csssssssssssssssssssssscssssc" />
    <path
       style="fill:none;stroke:#000000;stroke-width:0.7;stroke-linecap:butt;stroke-linejoin:miter;stroke-miterlimit:4;stroke-dasharray:none;stroke-opacity:1"
       d="m 117.57604,268.26858 c 5.88854,-13.5908 2.95784,-29.18375 7.24744,-43.08151 0.76925,-2.49229 2.50896,-6.22692 3.65741,-8.56964 1.76279,-3.59595 3.29906,-5.3186 5.4324,-8.73175 0.90708,-1.45125 1.89257,-2.7404 2.78483,-4.23936 4.65582,-7.82155 12.54863,-11.82678 20.51582,-15.45317 4.7538,-2.16377 11.79623,-6.2601 17.28234,-5.48554 6.74376,0.95213 2.40477,19.79738 12.0419,19.53387 8.48238,-0.23194 9.81796,-13.54939 18.17392,-14.26564 4.18572,-0.35879 13.76333,4.70004 16.70637,7.0767 3.08704,2.49295 6.15533,5.60161 8.30333,8.58188 4.29457,5.95858 8.27296,17.7368 8.88642,24.36232 0.48612,5.2502 0.49973,10.71643 1.61673,15.85454 1.44322,6.63862 4.13917,12.16608 4.62722,18.99867 0.0303,0.42396 1.32921,5.25666 2.28574,4.68277 0.28516,-0.17109 4.55991,-6.49357 3.51221,-4.48209"
       id="path887"
       sodipodi:nodetypes="cssssssssssssssc" />
    <path
       style="fill:none;stroke:#000000;stroke-width:0.7;stroke-linecap:butt;stroke-linejoin:miter;stroke-miterlimit:4;stroke-dasharray:none;stroke-opacity:1"
       d="m 123.08922,259.29254 c 2.01842,-3.60705 5.28129,-6.00959 8.55756,-8.42901 0,0 5.53346,-0.55322 11.3053,0.78729 2.18839,0.50825 6.23096,1.35714 8.45524,1.68065 3.19763,0.46509 6.31618,1.11211 9.79126,1.92608 0,0 5.55414,0.76797 6.88709,3.16721 0,0 1.59914,2.73232 1.47076,2.77433 -0.82495,0.26997 -2.45005,-0.91606 -3.23346,-1.13725 -1.68383,-0.47541 -3.47364,-0.45599 -5.18471,-0.83621 -1.5678,-0.34838 -4.47432,-0.79812 -6.07653,-0.87351 -2.99034,-0.1407 -4.75379,-0.65864 -7.74935,-0.73201 -1.34216,-0.0329 -2.32155,-0.13056 -3.68776,-0.0241 -2.1558,0.16797 -4.10528,-0.3114 -6.20626,-0.002 -2.04145,0.30083 -3.91082,0.27603 -5.93047,0.51056 -1.00203,0.11637 -3.09942,0.60756 -4.10984,0.65808 -1.56585,0.0783 -2.73324,0.50625 -4.28883,0.52975 z"
       id="path891"
       sodipodi:nodetypes="sssssssssssssssss" />
    <path
       style="fill:none;stroke:#000000;stroke-width:0.7;stroke-linecap:butt;stroke-linejoin:miter;stroke-miterlimit:4;stroke-dasharray:none;stroke-opacity:1"
       d="m 195.67561,257.88009 c 0,0 5.85126,-2.41599 9.90828,-3.11439 4.02305,-0.80239 6.20013,-1.02795 9.91885,-2.29033 3.08569,-0.78409 6.28429,-1.0904 9.39379,-1.73931 0.78444,-0.1637 3.03104,-0.69085 3.86395,-0.57978 2.77737,0.37034 4.119,1.8411 6.08611,3.68338 0.86308,0.80832 1.85095,1.4699 2.54367,2.43964 0.48935,0.68504 1.36081,1.30336 1.80898,2.00662 0.61789,0.96957 1.84945,1.83764 2.15826,2.94927 0.025,0.0901 -1.64863,-0.46876 -1.64863,-0.46876 0,0 -2.59319,-0.97872 -4.3304,-1.26735 -2.03586,-0.33826 -3.91256,-0.77494 -5.94673,-1.12997 -5.44639,-1.1903 -7.6449,-0.453 -12.65546,0.0538 -5.85313,0.54028 -8.26279,1.06824 -9.48774,1.32309 -2.80838,0.5843 -6.60876,0.0598 -8.12176,0.34013 -2.39322,0.22509 -6.22497,0.99666 -7.38361,1.51074 l 1.02907,-2.47147 z"
       id="path895"
       sodipodi:nodetypes="cccsssssscsccscccc" />
    <path
       style="fill:none;stroke:#000000;stroke-width:0.7;stroke-linecap:butt;stroke-linejoin:miter;stroke-miterlimit:4;stroke-dasharray:none;stroke-opacity:1"
       d="m 133.65376,270.89912 c 4.28814,-2.60368 8.24172,-7.58137 13.575,-7.92726 4.6403,-0.30095 10.89485,1.37164 14.75576,3.97769 1.27363,0.85968 2.26279,2.07183 3.27095,3.07991 0.57909,0.57905 2.84653,3.75047 1.99572,3.27403 -0.41812,-0.23414 0.56754,-0.3455 0.52127,-0.36402 -0.61157,-0.24464 -1.36446,-0.33651 -2.00699,-0.50172 -1.72507,-0.44356 -3.42211,-0.55545 -5.21258,-0.50173 -1.93194,0.058 -8.29551,2.00396 -10.21639,1.93992 -4.72351,-0.15745 -6.51673,-0.56502 -10.49358,-2.2744 -2.4694,-1.06143 -3.43163,-1.58135 -6.18916,-0.70242 z"
       id="path897"
       sodipodi:nodetypes="csssscssssc" />
    <path
       style="fill:none;stroke:#000000;stroke-width:0.7;stroke-linecap:butt;stroke-linejoin:miter;stroke-miterlimit:4;stroke-dasharray:none;stroke-opacity:1"
       d="m 198.54619,271.63498 c 2.3776,-1.82928 4.11485,-2.79438 6.38332,-4.18104 1.15174,-0.70403 4.60003,-2.00551 5.91898,-2.19931 2.49053,-0.36596 5.51858,-0.82497 9.38932,1.26085 1.3832,0.74536 3.75733,2.48101 4.96216,3.48192 1.51376,1.25755 3.42242,2.59602 5.15131,3.97897 0.16298,0.13037 -0.57825,-0.68044 -1.39374,-0.80276 -1.29926,-0.19488 -2.70215,-0.47027 -4.01396,-0.23414 -2.63857,0.47497 -3.28712,1.61587 -7.11208,2.44537 -2.8384,0.61556 -4.47929,0.55646 -7.10832,-0.67041 -1.64516,-0.76774 -4.33476,-2.63943 -6.15605,-3.01255 -2.14127,-0.43867 -4.04817,0.35583 -6.02094,-0.0669 z"
       id="path901"
       sodipodi:nodetypes="cssssssssssc" />
    <path
       style="fill:none;stroke:#000000;stroke-width:1px;stroke-linecap:butt;stroke-linejoin:miter;stroke-opacity:1"
       d="m 163.0895,303.47784 c -2.51234,1.02627 -5.24536,8.71724 -2.29814,10.05246 0,0 1.0607,0.79998 1.88002,0.85173 4.29138,0.27105 7.14017,-1.70065 9.85432,-1.17955 3.52763,0.67728 5.54318,6.29714 9.79738,6.29714 2.46641,0 5.23573,-2.99619 7.10806,-4.41518 0.67479,-0.51139 1.81561,-0.79311 2.59235,-1.10379 3.15297,-1.26112 7.25996,0.6094 9.08717,-0.26759 1.78456,-0.85652 3.41003,-4.91806 3.14986,-6.75658 -0.21856,-1.54446 -1.26542,-2.80128 -2.34149,-3.84657"
       id="path903"
       sodipodi:nodetypes="cssssssssc" />
    <path
       style="fill:none;stroke:#000000;stroke-width:1px;stroke-linecap:butt;stroke-linejoin:miter;stroke-opacity:1"
       d="m 151.80022,328.73138 c 2.43798,4.17668 5.20617,7.95139 8.9478,11.00453 0.9738,0.79461 1.68964,1.73317 2.8711,2.27447 2.11263,0.96793 3.24381,1.50601 5.42432,2.19128 1.43622,0.45137 3.96904,0.6613 5.50258,0.78564 7.5277,0.61033 20.95488,0.058 27.06639,-4.98381 2.54361,-2.09838 4.38335,-4.89915 6.27181,-7.55935 0.62828,-0.88502 3.2823,-4.37321 3.26135,-4.44863 -0.0949,-0.34177 -3.29303,0.25901 -3.45646,0.30104 -1.76907,0.45493 -3.02925,0.54085 -4.82062,0.92668 -3.71611,0.80039 -8.57724,2.56544 -10.23041,3.13246 -3.95233,1.38432 -7.24563,2.73878 -10.73358,3.02791 -1.36337,0.0692 -2.88432,-0.0143 -4.15744,-0.49918 -1.93796,-0.73806 -4.56611,-1.51936 -6.4345,-2.40681 -1.95664,-0.92936 -3.93233,-1.52312 -6.04884,-2.00691 -1.52369,-0.34829 -3.13914,-0.7897 -4.68295,-1.00345 -2.86634,-0.39685 -6.15511,0.43095 -8.78055,-0.73587 z"
       id="path907"
       sodipodi:nodetypes="csssssssssccssssc" />
    <path
       style="fill:none;stroke:#000000;stroke-width:0.5;stroke-linecap:butt;stroke-linejoin:miter;stroke-miterlimit:4;stroke-dasharray:none;stroke-opacity:1"
       d="m 162.28774,302.23171 -3.02353,2.18326 -1.00226,0.95639 -1.90408,1.81694 -2.79324,2.75405 c 0,0 -2.90324,2.76641 -5.1403,5.03534 -2.38211,2.41606 -6.32602,5.13202 -6.40588,8.86934 -0.0607,2.83945 1.96494,5.42646 2.96862,7.83519 0.56831,1.36389 2.67853,6.14942 3.53582,6.71054"
       id="path10153"
       sodipodi:nodetypes="cccccsssc" />
    <path
       style="fill:none;stroke:#000000;stroke-width:0.5;stroke-linecap:butt;stroke-linejoin:miter;stroke-miterlimit:4;stroke-dasharray:none;stroke-opacity:1"
       d="m 203.32431,302.22302 c 1.51387,1.02635 8.0921,9.97114 8.0921,9.97114 1.24921,1.20711 5.14532,4.87316 7.3397,7.04169 2.68029,2.64872 2.83771,6.91385 3.28772,10.42364"
       id="path10155"
       sodipodi:nodetypes="cssc" />
    <ellipse
       style="fill:url(#linearGradient112527);fill-opacity:1;fill-rule:evenodd;stroke-width:0.82047;stroke-dasharray:19.6913, 0.82047"
       id="path31439"
       cx="150.95401"
       cy="268.02084"
       rx="5.8039346"
       ry="5.0539947" />
    <ellipse
       style="fill:url(#linearGradient112599);fill-opacity:1;fill-rule:evenodd;stroke-width:0.842081;stroke-dasharray:20.21, 0.842081"
       id="path31543"
       cx="193.68254"
       cy="279.43695"
       rx="5.8895445"
       ry="5.1606784"
       transform="matrix(0.99900152,-0.04467615,0.06892595,0.99762178,0,0)" />
    <path
       style="fill:none;stroke:#000000;stroke-width:1px;stroke-linecap:butt;stroke-linejoin:miter;stroke-opacity:1"
       d="m 19.150332,413.86159 c 1.600218,58.51501 19.977525,83.23083 45.264272,99.85704 26.411266,14.93827 52.213766,21.21897 78.526336,29.70634 10.35396,4.23587 21.17603,1.30464 31.81933,2.69495 20.90909,-3.9542 51.85458,-2.67022 72.09406,-14.04769 5.6531,-3.17784 10.06486,-7.34006 15.13759,-11.25815 5.14333,-3.97262 11.45446,-6.43628 16.16257,-10.97435 3.0697,-2.95884 5.04549,-7.01177 7.56881,-10.40666 4.72377,-6.35538 10.6243,-11.73706 15.37411,-18.06987 3.6174,-4.82299 6.12085,-10.33026 9.14565,-15.5154 17.22185,-16.45773 30.38676,-37.09384 30.38676,-37.09384"
       id="path35444"
       sodipodi:nodetypes="ccccssssscc" />
    <path
       style="fill:#000000;fill-rule:evenodd;stroke-width:0.57931;stroke-miterlimit:4;stroke-dasharray:none"
       d="m 160.13793,544.6274 -12.41379,-0.50992 -21.51724,-6.88401 C 93.78539,526.86086 79.34326,521.12172 65.806126,513.23092 57.137847,508.17818 42.342811,493.61228 37.32862,485.19445 27.530189,468.74484 22.382096,449.24016 20.332462,420.80076 l -0.479088,-6.64752 3.935382,-3.85593 c 5.635463,-5.52168 22.651387,-15.14078 29.65819,-16.76577 3.082789,-0.71494 8.797678,-2.72599 12.699753,-4.469 3.902074,-1.743 8.211922,-3.43394 9.577439,-3.75764 1.365517,-0.3237 6.393104,-2.76899 11.172414,-5.43398 7.954297,-4.4354 12.994601,-6.48257 19.324068,-7.84869 l 2.35853,-0.50906 -0.54403,4.38135 c -1.02499,8.25463 -3.11949,17.63616 -7.57547,33.93146 -2.452805,8.96981 -4.467829,17.16291 -4.477825,18.2069 -0.01,1.04398 -0.761443,3.53636 -1.66988,5.53862 -0.908437,2.00226 -1.551982,3.73108 -1.4301,3.84182 0.121882,0.11075 5.062983,0.65065 10.980225,1.19979 25.59603,2.37538 27.08006,2.2685 34.10928,-2.45661 2.61289,-1.7564 5.00584,-3.03578 5.31766,-2.84306 0.31184,0.19273 0.81701,1.83039 1.12262,3.63926 0.76795,4.54551 -0.80106,8.84718 -3.7909,10.39329 -1.32761,0.68653 -2.41383,1.4802 -2.41383,1.7637 0,0.28351 3.14309,0.29366 6.98465,0.0226 6.05457,-0.42728 7.83298,-0.21585 13.35526,1.58778 8.09728,2.64466 9.48205,3.58532 13.17818,8.95195 l 3.02581,4.39334 -2.54398,5.03959 c -7.06638,13.99841 -9.72844,24.71514 -8.71942,35.10199 0.58651,6.0377 1.56042,7.18052 2.4684,2.89655 1.05541,-4.97955 6.23453,-17.54299 9.51649,-23.085 5.61303,-9.47828 11.67186,-14.81626 23.31777,-20.54348 5.5965,-2.75224 12.78235,-6.43038 15.96856,-8.17365 3.18621,-1.74326 6.34099,-3.35081 7.01062,-3.57232 0.96646,-0.31969 0.42427,-2.04352 -2.62924,-8.3595 -4.15806,-8.60067 -4.11638,-9.22939 0.67548,-10.18776 1.55822,-0.31165 4.02838,0.17492 6.9556,1.3701 6.46435,2.63937 23.79961,3.18187 30.96371,0.96899 5.40304,-1.66892 6.62643,-3.04302 3.42469,-3.84661 -1.65965,-0.41654 -2.33617,-1.40748 -3.31617,-4.85738 -1.80574,-6.35681 -3.78341,-22.11861 -4.57405,-36.45482 -0.46096,-8.35833 -1.13994,-13.60857 -2.02681,-15.67236 -0.7335,-1.7069 -0.96852,-3.10345 -0.52227,-3.10345 0.44624,0 5.40138,2.0019 11.01141,4.44868 16.3634,7.13676 41.53384,20.37457 53.16496,27.96086 5.91724,3.85947 12.77818,8.10826 15.24653,9.44176 9.09066,4.91116 11.4837,11.94615 6.54505,19.24097 -4.73,6.98662 -12.74872,16.97678 -20.04784,24.97669 -3.96386,4.34444 -9.10605,11.15812 -11.49303,15.2289 -2.37582,4.05175 -7.61073,11.12761 -11.63312,15.72413 -4.0224,4.59653 -9.23619,11.13939 -11.58621,14.5397 -3.45574,5.00022 -5.53873,7.00733 -10.89345,10.49658 -3.64138,2.3728 -9.68452,6.66659 -13.42921,9.54175 -12.09886,9.28946 -20.75615,13.21061 -35.31868,15.99689 -4.82387,0.92295 -26.69685,3.5631 -46.83831,5.65356 -1.59311,0.16534 -8.48276,0.0712 -15.31035,-0.20928 z"
       id="path41400" />
    <path
       style="fill:#000000;fill-rule:evenodd;stroke-width:0.57931;stroke-miterlimit:4;stroke-dasharray:none"
       d="m 177.67133,444.90408 c -1.26142,-3.70208 -6.28803,-11.41648 -12.18285,-18.69718 -1.65839,-2.04828 -5.00503,-6.70345 -7.43698,-10.34483 -4.56223,-6.83105 -11.03678,-14.73583 -15.17321,-18.52497 -2.9437,-2.69655 -11.33843,-14.28269 -13.56096,-18.71641 -0.91268,-1.82069 -2.61982,-6.6703 -3.79366,-10.77692 -2.36273,-8.26591 -7.94962,-20.59544 -12.65188,-27.92106 l -3.05987,-4.76695 0.90821,-10.95719 c 0.49951,-6.02645 1.46427,-13.19167 2.14392,-15.92271 0.67964,-2.73103 2.13068,-9.80689 3.22452,-15.72414 l 1.9888,-10.75862 0.98748,4.60205 c 0.54312,2.53112 1.51458,10.72422 2.15881,18.20689 1.66416,19.32902 2.97654,22.79241 13.61641,35.93374 5.8161,7.18349 7.14845,9.3714 14.5832,23.94781 6.51529,12.77373 8.40328,14.78188 14.79915,15.741 6.651,0.99738 7.43934,-0.42345 9.15521,-16.50045 l 0.52996,-4.96552 h 5.52897 c 3.04092,0 6.50189,-0.27355 7.69104,-0.6079 2.12548,-0.59761 2.1696,-0.52488 2.60678,4.29632 1.2076,13.31772 10.59509,21.62668 17.09276,15.129 2.76716,-2.76716 5.08001,-8.74555 8.83556,-22.8387 1.55974,-5.85309 3.59896,-11.71362 4.53161,-13.02341 0.93265,-1.30979 3.8153,-4.01254 6.40589,-6.00612 12.79791,-9.84861 17.10867,-18.66602 20.49169,-41.91471 l 1.14405,-7.86207 -0.43494,7.21595 c -0.35078,5.81959 -0.10669,8.27869 1.26134,12.70786 1.945,6.2972 2.35735,22.08261 0.79968,30.61386 -2.03939,11.16963 -8.5533,23.45969 -19.05143,35.94509 -7.97916,9.4896 -14.98814,20.98933 -16.87773,27.69153 -1.65658,5.87571 -10.87167,18.98055 -18.46882,26.26463 -3.0631,2.93688 -6.41333,7.37984 -8.88441,11.78221 -2.18185,3.88708 -4.79088,7.84142 -5.79784,8.78741 l -1.83084,1.71999 z"
       id="path41439" />
    <path
       style="fill:#000000;fill-rule:evenodd;stroke-width:0.57931;stroke-miterlimit:4;stroke-dasharray:none"
       d="m 246.27823,264.72239 c -0.23376,-1.08007 -1.71497,-7.36377 -3.29155,-13.96377 -1.5766,-6.6 -3.10799,-15.10251 -3.4031,-18.89447 -1.74341,-22.40106 -13.22875,-38.86005 -30.71884,-44.02144 -4.8019,-1.41706 -8.62196,-0.0121 -12.01823,4.42001 -5.40388,7.05206 -7.50177,8.84073 -10.36909,8.84073 -3.44936,0 -4.74378,-1.89763 -6.49887,-9.52743 -1.82809,-7.94711 -2.96486,-9.50705 -6.92806,-9.50705 -1.75297,0 -4.75564,0.55337 -6.6726,1.22971 -7.014,2.47468 -20.4034,9.46143 -23.87803,12.45984 -6.49362,5.60362 -16.63812,22.31052 -19.07465,31.41389 -0.48731,1.82069 -1.46974,9.43265 -2.18319,16.91545 -1.51388,15.87801 -2.7013,21.7116 -3.96114,19.46039 -1.19112,-2.12842 -0.17907,-13.36982 2.75334,-30.58273 1.39579,-8.19311 2.85324,-16.94483 3.23879,-19.44828 0.42061,-2.73119 2.60385,-8.4385 5.45856,-14.26949 4.17473,-8.52725 4.80598,-10.47196 5.15266,-15.874 l 0.39508,-6.15623 5.89483,-0.98931 c 8.28301,-1.39011 9.45075,-1.95306 14.62843,-7.05214 4.21219,-4.14824 5.04088,-4.59652 9.93104,-5.37216 3.7699,-0.59796 6.65128,-1.71465 9.82026,-3.80586 4.43341,-2.9256 4.55647,-2.9531 10.71831,-2.39473 11.66628,1.05717 21.23402,3.4369 26.36664,6.55802 2.62624,1.597 6.42237,3.33199 8.43584,3.85552 4.79865,1.24771 14.48174,7.01397 18.54519,11.04362 4.78654,4.74671 7.82067,12.16247 8.92641,21.81709 0.50946,4.44837 1.62687,10.96429 2.48313,14.47981 1.87017,7.67843 1.92267,11.46142 0.32472,23.40124 -0.67009,5.0069 -1.23746,12.64138 -1.26082,16.96552 -0.0295,5.45107 -0.40243,8.33738 -1.21625,9.41205 -1.12527,1.48593 -1.19133,1.46884 -1.59881,-0.4138 z"
       id="path41478" />
    <path
       style="fill:#000000;fill-rule:evenodd;stroke-width:0.57931;stroke-miterlimit:4;stroke-dasharray:none"
       d="m 158.89655,258.05709 c -4.669,-0.99801 -23.72799,-1.29839 -29.7931,-0.46955 l -4.55173,0.62202 3.62368,-3.31168 c 4.54123,-4.15022 6.03448,-4.20047 23.2393,-0.78196 11.64523,2.31384 15.75771,3.49711 15.75771,4.53389 0,0.58931 -4.1296,0.29355 -8.27586,-0.59272 z"
       id="path41517" />
    <path
       style="fill:#1a1a1a;fill-rule:evenodd;stroke-width:0.57931;stroke-miterlimit:4;stroke-dasharray:none"
       d="m 197.37931,258.29059 c 1.82069,-0.8182 7.5931,-2.45309 12.82759,-3.6331 20.4843,-4.61776 19.80008,-4.64737 25.24138,1.09247 l 3.31034,3.49197 -2.48276,-0.52743 c -5.8154,-1.23543 -15.93391,-1.51083 -23.81386,-0.64814 -4.6541,0.50953 -10.69648,1.10314 -13.42752,1.31914 l -4.96551,0.39272 z"
       id="path41556" />
    <path
       style="fill:#1a1a1a;fill-rule:evenodd;stroke-width:0.57931;stroke-miterlimit:4;stroke-dasharray:none"
       d="m 170.48276,455.18 c -3.27632,-3.509 -4.61043,-4.2576 -11.0947,-6.22551 -5.67038,-1.72092 -8.28676,-2.11536 -11.34248,-1.71 l -3.97193,0.52689 1.19946,-2.29948 c 1.92492,-3.69028 1.03355,-13.28768 -1.3722,-14.77452 -0.47596,-0.29416 -2.4922,0.63346 -4.48055,2.06138 -8.44794,6.06685 -13.36011,6.89674 -27.28243,4.60925 -4.09655,-0.67308 -9.44688,-1.2252 -11.88962,-1.22693 -4.212998,-0.003 -4.413685,-0.0989 -3.903192,-1.86522 0.29599,-1.02414 0.869881,-3.76415 1.275313,-6.08891 0.405432,-2.32477 1.677082,-7.35235 2.825889,-11.17242 5.91122,-19.65625 9.62265,-37.32336 9.62265,-45.8057 0,-3.12822 0.4191,-3.94659 3.40061,-6.64021 1.87034,-1.68974 3.88712,-4.00998 4.48173,-5.15608 l 1.0811,-2.08384 1.24557,2.40867 c 0.68506,1.32476 2.00718,6.42637 2.93803,11.3369 2.00358,10.56944 4.26153,15.82701 10.67368,24.85334 2.61506,3.68119 7.98757,11.72067 11.93891,17.86549 3.95134,6.14483 8.89123,13.03449 10.97755,15.31035 4.27876,4.66751 12.6081,16.5206 15.12048,21.51724 1.5071,2.99734 3.22384,8.79316 2.55292,8.6188 -0.14996,-0.039 -1.94852,-1.86574 -3.99679,-4.05949 z"
       id="path41632" />
    <path
       style="fill:#1a1a1a;fill-rule:evenodd;stroke-width:0.57931;stroke-miterlimit:4;stroke-dasharray:none"
       d="m 165.57771,496.43201 c -0.0778,-6.00627 2.37774,-13.90216 7.55504,-24.29408 4.99313,-10.02225 8.8954,-15.85513 17.16361,-25.65517 7.38095,-8.74839 13.74782,-18.10125 14.58037,-21.4184 0.32488,-1.29442 2.90815,-5.81969 5.74061,-10.05615 3.36989,-5.04031 6.23115,-10.65766 8.27812,-16.25199 2.72733,-7.45372 3.77833,-9.24125 8.20127,-13.94861 3.13889,-3.34073 6.29,-7.86218 8.26492,-11.85911 1.75553,-3.55291 3.72981,-6.66627 4.38729,-6.91856 1.71493,-0.65808 7.58492,5.2664 9.57177,9.66062 1.32227,2.92439 1.80735,6.44648 2.33656,16.96552 0.75343,14.9756 3.44324,34.19891 5.30843,37.93776 0.68266,1.36842 1.2412,2.57989 1.2412,2.69214 0,0.11226 -1.91635,0.66383 -4.25855,1.22572 -6.13828,1.47254 -20.5679,0.57566 -26.16412,-1.62626 -5.14782,-2.02548 -7.52293,-2.13257 -11.39702,-0.51388 -3.74142,1.56327 -3.68733,3.00505 0.41921,11.17255 l 3.28918,6.54184 -6.39263,3.51282 c -3.51594,1.93205 -11.09301,5.85553 -16.83792,8.71887 -9.15681,4.56386 -11.09648,5.91073 -15.72414,10.91857 -5.3509,5.79049 -11.09673,15.46636 -13.94518,23.48346 l -1.55755,4.38378 z"
       id="path41671" />
    <path
       style="fill:#edb9ab;fill-opacity:1;fill-rule:evenodd;stroke-width:0.57931;stroke-miterlimit:4;stroke-dasharray:none"
       d="m 160.55172,377.19982 c -3.26746,-1.65778 -4.11392,-2.70134 -6.90285,-8.51016 -5.75006,-11.97634 -12.04184,-22.47893 -17.89817,-29.87662 -9.85423,-12.44782 -11.82286,-17.45018 -12.83185,-32.60614 -0.28788,-4.32414 -1.47156,-14.13483 -2.6304,-21.80153 -1.15885,-7.6667 -1.92719,-14.74256 -1.70743,-15.72414 0.21976,-0.98157 0.9901,-4.01916 1.71187,-6.7502 0.72176,-2.73103 1.8794,-10.92413 2.57251,-18.20689 0.69312,-7.28276 1.67789,-14.73104 2.18837,-16.55173 2.22565,-7.93798 12.7106,-24.95589 18.40251,-29.86873 4.94031,-4.26413 22.85505,-12.91218 27.71546,-13.37921 2.68609,-0.2581 4.22108,-0.0225 4.85771,0.74565 0.51191,0.61764 1.7096,4.2885 2.66153,8.15747 1.936,7.86852 3.59593,9.93103 7.9926,9.93103 3.19423,0 7.00866,-2.95541 10.71247,-8.30001 2.4206,-3.49293 5.76176,-5.76895 8.4687,-5.76895 0.84323,0 4.49276,1.43872 8.11006,3.19717 14.84486,7.2164 22.41256,20.45409 24.35913,42.60992 0.41233,4.69304 1.86899,12.46618 3.27346,17.46791 1.39179,4.95663 2.53282,9.78539 2.53563,10.73059 0.002,0.9452 0.56143,2.78525 1.24138,4.08901 2.52803,4.84729 0.97073,27.09018 -2.9623,42.31032 -3.04271,11.77477 -6.82434,17.11469 -19.23393,27.15962 -4.53947,3.67448 -6.41644,7.06818 -8.32715,15.05615 -5.86296,24.51086 -11.07987,31.39495 -18.3115,24.16332 -3.16283,-3.16283 -5.37712,-9.63645 -5.37712,-15.72036 0,-4.03224 -0.0289,-4.07746 -2.27586,-3.5542 -6.27484,1.46127 -12.58184,1.53395 -14.66501,0.169 -1.15149,-0.75448 -2.09654,-1.27009 -2.10012,-1.14581 -0.21729,7.54037 -1.0333,16.08336 -1.83973,19.26046 -0.94357,3.71739 -1.30263,4.16174 -3.53307,4.37224 -1.37468,0.12972 -4.14488,-0.609 -6.2069,-1.65518 z m 30.68571,-32.1087 c 7.67524,-1.45558 11.2255,-3.74178 16.14874,-10.39898 4.79335,-6.48157 5.30536,-7.79891 3.02762,-7.78979 -2.39156,0.01 -14.28121,3.07543 -20.67411,5.33101 -7.27785,2.56781 -9.64539,2.62286 -15.29525,0.35566 -6.6403,-2.66465 -12.22494,-4.0166 -16.63677,-4.02747 -2.19199,-0.006 -4.70578,-0.39534 -5.5862,-0.86653 -2.73566,-1.46408 -1.92072,1.06758 2.10318,6.53366 3.88797,5.28144 8.17106,8.63305 13.4293,10.50871 3.75257,1.33857 17.22071,1.54144 23.48349,0.35373 z m -45.78111,-13.76277 -3.43293,-7.15441 1.609,-2.62945 c 0.88494,-1.44619 4.81282,-5.6737 8.72861,-9.39447 l 7.11963,-6.76504 -0.39455,4.10613 c -0.36567,3.80555 -0.23495,4.17885 1.78562,5.09948 1.60116,0.72954 3.40425,0.77149 6.78917,0.15795 4.60859,-0.83534 4.60934,-0.83514 8.45889,2.34596 2.21589,1.8311 4.73559,3.18136 5.93668,3.18136 1.14773,0 3.92011,-1.30345 6.16085,-2.89655 3.60354,-2.56202 4.6676,-2.89655 9.2134,-2.89655 4.98927,0 5.17595,-0.0785 6.39337,-2.68966 0.68971,-1.47931 1.38387,-3.31495 1.54257,-4.07921 0.36746,-1.76959 14.55314,13.30688 15.11312,16.06217 1.07913,5.30965 1.55292,6.74798 1.90605,5.78646 0.21374,-0.582 -0.0426,-2.85584 -0.56973,-5.053 -0.71141,-2.9655 -1.92665,-4.93188 -4.71629,-7.63149 -2.06687,-2.00016 -5.78262,-6.15044 -8.25722,-9.22286 -4.28132,-5.31561 -6.20388,-6.57314 -7.31087,-4.782 -0.27337,0.44232 0.10131,1.71739 0.8326,2.8335 1.21711,1.85753 1.21822,2.24475 0.0132,4.5751 -1.24288,2.40346 -1.58777,2.54582 -6.16789,2.54582 -4.19067,0 -5.42489,0.39449 -9.06224,2.89655 -2.31597,1.5931 -4.57928,2.89655 -5.02959,2.89655 -0.45031,0 -2.04204,-1.06263 -3.53719,-2.36139 -4.64056,-4.03104 -6.0123,-4.46597 -10.89096,-3.45317 -5.96888,1.23913 -7.44366,0.57146 -6.84783,-3.10021 0.25676,-1.5822 1.07785,-3.5519 1.82465,-4.3771 1.44323,-1.59477 1.00886,-3.25985 -0.8504,-3.25985 -0.61643,0 -5.43584,4.19665 -10.70978,9.3259 -8.26599,8.0392 -9.58898,9.6888 -9.58898,11.95616 0,2.71645 5.49287,15.13173 6.69471,15.13173 0.37251,0 -0.86752,-3.21948 -2.75563,-7.15441 z m 75.83618,-56.25439 c 2.28503,-0.77858 5.12012,-1.14705 6.76811,-0.87961 1.55977,0.25312 2.83594,0.15649 2.83594,-0.2147 0,-1.10209 -8.51158,-7.33406 -12.01754,-8.79893 -5.11675,-2.13792 -13.34216,-0.0894 -19.63763,4.89058 -2.18699,1.73001 -1.778,2.20456 1.89998,2.20456 1.98334,0 4.9326,0.84342 7.23479,2.06897 4.53071,2.41188 7.48784,2.57881 12.91635,0.72913 z m -66.52842,-1.17952 c 3.30727,-0.98859 9.04303,-1.18264 11.53917,-0.3904 2.73365,0.86763 2.05019,-1.37473 -1.46532,-4.80753 -6.36324,-6.21353 -17.74892,-8.2912 -23.61628,-4.3095 -8.47815,5.75343 -9.5761,7.06127 -5.92805,7.06127 1.12872,0 3.4563,0.53624 5.17241,1.19164 5.86614,2.24035 9.83502,2.58858 14.29807,1.25452 z m 48.40833,-13.19112 c 4.55173,-0.4317 11.1663,-1.16139 14.69905,-1.62154 6.34967,-0.82706 15.99882,0.26227 21.77461,2.45822 3.53098,1.34248 2.40078,-1.76331 -2.33572,-6.41856 -5.81016,-5.71049 -7.40293,-6.22437 -14.86263,-4.79525 -16.85453,3.22899 -29.26607,6.87776 -30.64194,9.0082 -1.26387,1.95701 -0.68538,3.21814 1.2287,2.67866 1.02414,-0.28866 5.58621,-0.87803 10.13793,-1.30973 z m -33.51724,-0.33577 c 0,-0.63234 -0.65427,-1.9577 -1.45395,-2.94525 -1.17409,-1.44995 -4.16081,-2.34036 -15.51724,-4.62603 -7.73481,-1.55676 -15.78993,-2.8383 -17.90026,-2.84786 -3.45419,-0.0156 -4.25914,0.37899 -8.06896,3.95583 -5.90582,5.54468 -5.66154,6.29371 1.768,5.42113 8.57111,-1.00665 27.47479,-0.54204 33.31034,0.8187 6.63617,1.54743 7.86207,1.58227 7.86207,0.22348 z"
       id="path110153" />
    <path
       style="fill:#edb9ab;fill-opacity:1;fill-rule:evenodd;stroke-width:0.289655;stroke-miterlimit:4;stroke-dasharray:none"
       d="m 176.27586,460.00703 c 0,-2.68881 -0.91585,-6.25157 -2.45571,-9.55295 -2.66679,-5.71746 -11.10516,-17.88506 -15.38085,-22.17822 -2.81228,-2.82376 -5.93812,-7.21513 -12.36604,-17.37253 -2.74835,-4.34293 -7.19559,-11.03101 -9.88276,-14.8624 -6.66775,-9.50694 -9.38478,-14.65927 -10.16832,-19.28231 -0.23032,-1.35893 0.0956,-0.91456 1.82084,2.48276 2.90371,5.71785 8.66831,13.83649 12.63392,17.7931 1.82483,1.82069 4.15541,4.32794 5.17908,5.57165 1.02367,1.24372 2.7638,3.19889 3.86695,4.34483 1.10315,1.14594 4.15867,5.34214 6.79004,9.3249 2.63137,3.98276 5.76716,8.40207 6.96844,9.82069 1.20127,1.41862 3.06825,3.83931 4.14884,5.37931 1.08059,1.54 3.15898,4.44796 4.61865,6.46213 2.90916,4.0143 4.70473,7.63708 4.76302,9.60999 0.0207,0.69967 -0.3708,1.84566 -0.86994,2.54664 -1.64765,2.31391 -1.08349,2.71238 1.91416,1.352 3.09408,-1.40415 5.74291,-4.64368 10.00589,-12.23721 3.90008,-6.94713 3.97842,-7.04951 9.94953,-13.00239 3.99545,-3.98326 6.90889,-7.31541 8.6674,-9.91307 1.4569,-2.15212 3.54441,-5.09607 4.63891,-6.5421 2.64379,-3.49293 3.14996,-4.54364 4.31972,-8.96682 0.96983,-3.66722 3.33103,-9.18879 3.75017,-8.76964 0.27903,0.27902 -4.10962,12.48702 -5.40324,15.03036 -0.55635,1.0938 -2.445,3.94391 -4.197,6.33356 -3.96415,5.40693 -4.85061,6.94986 -5.96784,10.38729 -1.48183,4.55926 -7.70912,13.56829 -15.98805,23.12995 -4.14671,4.78921 -8.3136,10.27124 -9.75064,12.8281 -1.13207,2.01424 -1.60517,2.09747 -1.60517,0.28238 z"
       id="path110192" />
    <path
       style="fill:#edb9ab;fill-opacity:1;fill-rule:evenodd;stroke-width:0.144828;stroke-miterlimit:4;stroke-dasharray:none"
       d="m 219.31035,392.2069 c 0,-0.18966 -0.0875,-0.34483 -0.19443,-0.34483 -0.2544,0 3.99324,-6.99146 5.78218,-9.51724 2.42103,-3.41825 9.42845,-11.94932 9.64076,-11.73701 0.15692,0.15693 -1.87525,4.5512 -2.70097,5.84046 -1.93351,3.01891 -3.85,5.30408 -8.06857,9.62069 -2.71514,2.77824 -2.9824,3.12234 -3.61569,4.65517 -0.75735,1.83313 -0.84328,1.98423 -0.84328,1.48276 z"
       id="path110231" />
    <path
       style="fill:#edb9ab;fill-opacity:1;fill-rule:evenodd;stroke-width:0.144828;stroke-miterlimit:4;stroke-dasharray:none"
       d="m 251.9566,308.67774 c -0.19457,-0.11343 -0.41381,-0.52639 -0.48722,-0.91769 -0.0746,-0.39783 -0.28625,-0.75995 -0.48004,-0.82145 -0.23219,-0.0737 -0.61278,-0.94655 -1.15328,-2.64499 -0.69644,-2.18842 -0.81836,-2.86027 -0.89182,-4.9143 -0.05,-1.39908 0.0505,-3.60493 0.24396,-5.35424 0.4176,-3.77559 0.4319,-10.0684 0.0283,-12.43886 -0.34671,-2.03613 -1.27683,-9.42623 -1.51033,-12 l -0.15955,-1.75862 1.21529,-1.65518 c 0.66841,-0.91034 1.37709,-1.71681 1.57484,-1.79214 0.19775,-0.0753 0.55665,-0.47103 0.79754,-0.87931 0.53691,-0.91 1.22164,-0.96911 2.95696,-0.25526 1.574,0.64748 2.43216,1.29345 2.59843,1.95593 0.2158,0.85984 -0.39979,2.82042 -1.88131,5.99166 -1.60372,3.43283 -1.89004,4.54037 -2.21748,8.57749 -0.27503,3.39103 -0.0643,8.77277 0.66254,16.91888 0.60946,6.83075 0.48971,10.89576 -0.34824,11.82169 -0.39721,0.43891 -0.4617,0.45022 -0.94856,0.16639 z"
       id="path110270" />
    <path
       style="fill:#edb9ab;fill-opacity:1;fill-rule:evenodd;stroke-width:0.204817;stroke-miterlimit:4;stroke-dasharray:none"
       d="m 111.21537,309.82425 c -0.0159,-0.42148 0.16577,-1.88278 0.40373,-3.24736 3.37114,-19.33154 3.46891,-22.25015 0.98393,-29.37395 -1.41936,-4.06897 -1.72458,-7.31222 -1.13153,-12.0238 0.44205,-3.51191 0.47737,-3.5984 1.46941,-3.5984 1.29273,0 1.89581,0.81375 3.03587,4.09635 1.03955,2.99319 1.06682,3.18143 1.05966,7.31489 -0.01,5.81212 -0.43254,10.42652 -1.28714,14.05823 -1.03903,4.41541 -2.11099,10.23021 -2.93724,15.93285 -0.71568,4.93957 -1.53582,8.45353 -1.59669,6.84119 z"
       id="path110426" />
    <path
       style="fill:#edb9ab;fill-opacity:1;fill-rule:evenodd;stroke-width:0.0724138;stroke-miterlimit:4;stroke-dasharray:none"
       d="m 201.90609,313.85648 c 0.92999,-0.68393 2.11021,-2.70498 2.62456,-4.49441 0.34813,-1.21113 0.33973,-2.76228 -0.0196,-3.62156 -0.34016,-0.81344 -0.94164,-1.71092 -1.65702,-2.47249 l -0.57699,-0.61425 -0.37711,0.40588 c -0.34455,0.37083 -0.37734,0.38546 -0.3799,0.16947 -0.006,-0.52561 0.60779,-1.05671 1.22169,-1.05671 0.39345,0 1.47768,1.12612 3.49391,3.62889 1.6303,2.02371 4.38505,5.62722 4.38505,5.73611 0,0.0391 -0.41934,-0.3179 -0.93188,-0.79346 -2.4433,-2.26702 -3.62786,-3.19222 -4.08707,-3.19222 -0.2039,0 -0.26824,0.10364 -0.46361,0.74684 -0.5654,1.86145 -1.78525,4.53531 -2.35932,5.17151 -0.35415,0.39247 -0.87263,0.70233 -1.17518,0.70233 -0.0699,0 0.0662,-0.14217 0.30246,-0.31593 z"
       id="path110465" />
    <path
       style="fill:#edb9ab;fill-opacity:1;fill-rule:evenodd;stroke-width:0.0724138;stroke-miterlimit:4;stroke-dasharray:none"
       d="m 142.24261,323.40517 c 0.003,-0.37963 0.31785,-1.34735 0.66562,-2.0431 0.55401,-1.10836 1.30785,-2.03589 2.94269,-3.62069 0.8217,-0.79655 3.56941,-3.47523 6.10602,-5.95262 6.96962,-6.80689 7.26854,-7.08368 8.93814,-8.27635 0.87948,-0.62824 1.49452,-1.13556 1.46778,-1.21068 -0.0593,-0.16656 -0.004,-0.16285 0.35728,0.0238 0.50798,0.26268 0.72885,0.63934 0.72218,1.23154 l -0.006,0.52915 -0.24681,-0.54311 C 163.05381,303.2444 162.90154,303 162.85118,303 c -0.23527,0 -1.1019,0.69671 -1.52297,1.22436 -0.54602,0.68423 -1.30063,2.09792 -1.7157,3.21421 -0.3396,0.91329 -0.36809,0.77753 -0.19363,-0.92253 0.0597,-0.58168 0.0852,-1.08095 0.0566,-1.10949 -0.0285,-0.0285 -1.90372,1.71098 -4.16707,3.8656 -7.83751,7.46104 -10.68835,10.51585 -12.28182,13.16057 -0.38225,0.63442 -0.7153,1.15349 -0.74012,1.15349 -0.0248,0 -0.0446,-0.0815 -0.0439,-0.18104 z"
       id="path110504" />
    <path
       style="fill:#edb9ab;fill-opacity:1;fill-rule:evenodd;stroke-width:0.0724138;stroke-miterlimit:4;stroke-dasharray:none"
       d="m 177.72414,318.23435 c -0.36983,-0.26603 -1.41724,-1.08025 -2.32759,-1.80937 -0.97067,-0.77744 -1.97356,-1.48525 -2.42505,-1.71154 -1.12638,-0.56452 -2.01676,-0.57792 -4.9715,-0.0748 -2.35097,0.40033 -4.60997,0.55881 -5.48276,0.38464 -0.36987,-0.0738 -0.16796,-0.0948 0.98276,-0.10222 1.7052,-0.011 2.24268,-0.0883 4.8834,-0.70234 2.43585,-0.56641 3.25872,-0.65002 4.14919,-0.42163 0.74247,0.19044 1.29077,0.48871 2.03638,1.10779 0.66766,0.55435 4.01115,3.82019 3.90693,3.81618 -0.0436,-0.002 -0.38193,-0.22071 -0.75176,-0.48674 z"
       id="path110543" />
    <path
       style="fill:#edb9ab;fill-opacity:1;fill-rule:evenodd;stroke-width:0.0724138;stroke-miterlimit:4;stroke-dasharray:none"
       d="m 157.96552,346.53919 v -7.97804 l 0.73774,0.69594 c 2.75125,2.5954 6.84262,4.98951 9.80868,5.73968 3.70235,0.93638 13.1416,1.21244 19.5053,0.57046 4.88453,-0.49276 9.18959,-1.73446 12,-3.46112 2.40281,-1.47624 4.64351,-3.69625 7.25934,-7.19232 3.63133,-4.85328 4.85645,-6.98625 4.40287,-7.66554 -0.40238,-0.60263 -2.2759,-0.43943 -6.66975,0.58099 -4.62649,1.07445 -9.72341,2.52274 -14.92349,4.24052 -5.35611,1.76931 -6.63117,2.06699 -8.85714,2.06776 -2.13147,7.2e-4 -3.4355,-0.3201 -7.20999,-1.77389 -4.1335,-1.59207 -7.3596,-2.58383 -10.36131,-3.18523 -1.78297,-0.35723 -3.90974,-0.62667 -4.94642,-0.62667 h -0.74583 v -10.84701 -10.84701 l 0.73642,-0.65449 0.73642,-0.6545 -0.0648,0.51012 c -0.19791,1.55703 -0.47545,4.98204 -0.46886,5.78599 0.009,1.06699 0.12579,1.4706 0.55986,1.9305 0.41398,0.43862 1.78866,1.08393 2.74237,1.28734 1.15513,0.24638 3.05787,0.14038 5.7931,-0.32272 2.86094,-0.48438 3.84842,-0.47983 4.86775,0.0225 0.36986,0.18225 1.32291,0.85306 2.11788,1.49068 3.60766,2.89358 5.59329,4.02277 7.07383,4.02277 1.24774,0 3.53402,-1.08158 6.51327,-3.08126 3.6616,-2.45768 3.90154,-2.52306 9.94451,-2.70976 1.56466,-0.0483 3.01324,-0.1389 3.21907,-0.20124 0.56398,-0.17082 1.03876,-0.52974 1.3881,-1.04938 0.44437,-0.66098 1.35426,-2.71338 1.87717,-4.23422 0.32853,-0.95549 0.49307,-1.30097 0.63024,-1.32324 1.07273,-0.17413 10.19129,9.18969 13.50308,13.86627 1.07379,1.5163 1.18395,1.76673 1.5693,3.5676 0.74041,3.46024 1.16788,4.82543 1.49161,4.7637 0.29323,-0.0559 0.37162,-0.72291 0.23839,-2.02851 -0.35905,-3.51847 -1.29772,-6.23184 -2.88535,-8.34054 -0.38335,-0.50917 -1.67617,-1.92947 -2.87293,-3.15624 -2.91917,-2.99236 -5.06844,-5.40489 -7.97556,-8.95249 -1.69987,-2.07436 -3.57329,-4.03858 -4.44174,-4.65701 -1.12155,-0.79866 -1.94283,-0.8631 -2.52658,-0.19825 -0.5651,0.64362 -0.36965,1.59867 0.68336,3.33912 0.6929,1.14524 0.88502,1.76546 0.74675,2.41068 -0.13339,0.62248 -1.27277,2.87534 -1.71618,3.39336 -0.7511,0.87749 -1.33303,1.00741 -4.89425,1.09265 -3.13761,0.0751 -3.98796,0.16963 -5.22413,0.58077 -1.19598,0.39777 -1.77536,0.72195 -4.60345,2.57578 -2.60332,1.70649 -4.16597,2.58359 -4.60297,2.58359 -0.52528,0 -1.7759,-0.84841 -3.99986,-2.71346 -4.32521,-3.62722 -5.58166,-3.99177 -10.48338,-3.0417 -3.31755,0.64301 -4.81571,0.71541 -5.79949,0.28024 -0.87745,-0.38814 -1.19442,-1.29397 -0.99773,-2.85128 0.22038,-1.74487 0.95112,-3.63826 1.84073,-4.76947 0.6206,-0.78913 0.86528,-1.32618 0.86763,-1.90433 0.004,-0.89279 -0.59949,-1.44849 -1.57161,-1.44809 -0.37908,2.1e-4 -0.55968,0.0876 -1.25206,0.60636 -0.44499,0.33339 -1.2228,0.96176 -1.72847,1.39637 -0.50567,0.4346 -0.9446,0.79019 -0.9754,0.79019 -0.0308,0 -0.056,-6.54052 -0.056,-14.53448 V 275.7931 h 26.79195 c 26.50426,0 26.80007,0.002 27.54886,0.20766 1.6628,0.45618 3.78868,0.45812 5.86321,0.005 0.85916,-0.18752 1.33243,-0.21301 3.95493,-0.21301 h 2.97898 v 29.40955 29.40954 l -1.53503,1.26038 c -1.76842,1.45201 -3.63503,3.33794 -4.48483,4.53124 -0.79164,1.11164 -1.83321,3.13204 -2.45411,4.76042 -0.61537,1.61387 -1.13498,3.39433 -1.98235,6.79267 l -0.63842,2.56034 h -28.02159 -28.0216 z"
       id="path110582" />
    <path
       style="fill:#edb9ab;fill-opacity:1;fill-rule:evenodd;stroke-width:0.0724138;stroke-miterlimit:4;stroke-dasharray:none"
       d="m 186.51016,318.2279 c 0.19524,-0.15379 1.0099,-0.82935 1.81035,-1.50123 1.64945,-1.38453 1.89662,-1.52872 3.65037,-2.12951 1.58288,-0.54225 2.62438,-0.62731 4.67665,-0.38195 0.7639,0.0913 1.40592,0.18307 1.42671,0.20386 0.0208,0.0208 -0.93007,0.0615 -2.11304,0.0904 -3.30026,0.0806 -4.17197,0.38976 -7.61597,2.70075 -1.07133,0.71888 -2.00237,1.30488 -2.06897,1.3022 -0.0666,-0.003 0.0387,-0.13068 0.2339,-0.28448 z"
       id="path110621" />
    <path
       style="fill:#edb9ab;fill-opacity:1;fill-rule:evenodd;stroke-width:0.0724138;stroke-miterlimit:4;stroke-dasharray:none"
       d="m 197.84483,313.24153 c -0.85345,-0.10576 -1.92026,-0.1956 -2.37069,-0.19966 -1.56814,-0.0141 -0.69739,-0.11288 1.81106,-0.20536 1.84572,-0.068 2.67421,-0.1394 3.07915,-0.26515 0.82038,-0.25478 1.30921,-0.81941 2.14529,-2.47792 1.03112,-2.04542 1.03401,-2.556 0.0238,-4.21427 -0.51728,-0.84912 -1.05587,-2.08774 -0.99162,-2.28048 0.0389,-0.11667 0.92976,0.89568 1.41511,1.60808 1.04295,1.53084 0.96765,3.21747 -0.25495,5.71103 -0.47101,0.96066 -1.30435,2.01379 -1.79052,2.26279 -0.47224,0.24186 -1.44977,0.26129 -3.06663,0.0609 z"
       id="path110660" />
    <path
       style="fill:#edb9ab;fill-opacity:1;fill-rule:evenodd;stroke-width:0.0724138;stroke-miterlimit:4;stroke-dasharray:none"
       d="m 157.96552,346.54478 v -7.97245 l 0.85345,0.77887 c 3.06044,2.79301 7.11463,5.09167 10.11207,5.73337 4.06114,0.86942 12.88976,1.09276 19.04326,0.48174 5.1192,-0.50831 9.52636,-1.82483 12.38821,-3.70064 2.65939,-1.74311 4.74503,-3.94837 8.04238,-8.5036 2.32299,-3.20918 3.23219,-4.73472 3.32791,-5.58388 0.0432,-0.38342 0.0141,-0.46233 -0.24708,-0.67 -0.27783,-0.22089 -0.36297,-0.23188 -1.38227,-0.17842 -2.90988,0.15259 -11.99401,2.49155 -20.17241,5.19393 -5.50834,1.82011 -6.76335,2.08841 -9.2832,1.98462 -2.12586,-0.0876 -2.69308,-0.24582 -7.80838,-2.17846 -3.56034,-1.34515 -6.47917,-2.21088 -9.44291,-2.80077 -1.57293,-0.31307 -3.73909,-0.57736 -4.73212,-0.57736 h -0.69891 v -10.85142 -10.85142 l 0.734,-0.65074 0.73401,-0.65075 -0.0648,0.56251 c -0.20038,1.74044 -0.472,5.01397 -0.47157,5.68319 9.8e-4,1.4975 0.34137,2.03493 1.70779,2.69631 1.87271,0.90644 3.42604,0.93471 8.00329,0.14563 2.18486,-0.37664 3.30926,-0.3424 4.2566,0.12965 0.36828,0.18351 1.11184,0.6843 1.65236,1.11286 4.93705,3.91443 6.67855,4.78062 8.54196,4.24861 1.11556,-0.3185 3.26453,-1.46014 5.37184,-2.85378 3.86035,-2.553 4.01244,-2.59526 10.03448,-2.78827 3.07688,-0.0986 3.48152,-0.16363 4.13083,-0.66367 0.17459,-0.13446 0.46986,-0.49845 0.65616,-0.80886 0.44519,-0.74181 1.40347,-2.96497 1.83961,-4.26781 0.25606,-0.76489 0.39672,-1.04478 0.53622,-1.06701 1.16314,-0.18533 10.84673,9.88247 13.95905,14.5129 0.67609,1.00587 0.74247,1.19269 1.27863,3.59839 0.56424,2.53174 0.82814,3.47658 1.07723,3.85673 0.2313,0.353 0.33969,0.31552 0.48441,-0.16751 0.23714,-0.7915 -0.27107,-4.22584 -0.91002,-6.14968 -0.4006,-1.20618 -0.79236,-2.03333 -1.41374,-2.98493 -0.78206,-1.19767 -1.36698,-1.87034 -3.79063,-4.35934 -2.4223,-2.4876 -4.29615,-4.59385 -7.22518,-8.12125 -2.52543,-3.04135 -4.4565,-4.99894 -5.38909,-5.46309 -0.3647,-0.18151 -0.79761,-0.33001 -0.96204,-0.33001 -0.67265,0 -1.32317,0.62291 -1.32317,1.26701 0,0.55195 0.35269,1.44849 0.98987,2.51629 1.05644,1.77041 1.05913,2.09289 0.0346,4.14758 -0.91662,1.83826 -1.35988,2.29107 -2.52445,2.57887 -0.39255,0.097 -0.44532,0.12994 -0.21889,0.13662 1.08879,0.0321 1.91803,-0.72452 2.84631,-2.59709 1.01007,-2.03755 1.0178,-2.53603 0.0655,-4.22233 -0.5652,-1.00082 -1.03179,-2.05705 -0.94642,-2.14242 0.0906,-0.0906 1.34047,1.57869 1.60463,2.14305 0.40786,0.87135 0.43177,2.10087 0.064,3.28993 -0.4063,1.31355 -1.12982,2.63137 -1.86338,3.39396 -0.58938,0.61269 -0.65178,0.64899 -1.23682,0.7194 -0.38053,0.0458 -1.25076,0.009 -2.27586,-0.0972 -0.91285,-0.0943 -1.89249,-0.17809 -2.17698,-0.18628 -0.28448,-0.008 0.4138,-0.0724 1.55173,-0.14259 l 2.06896,-0.12772 -2.68965,0.0469 c -1.47931,0.0258 -3.06207,0.0922 -3.51724,0.14754 -1.72233,0.20952 -2.94083,0.71687 -5.0821,2.11603 -3.87392,2.53131 -5.47304,3.45617 -5.98085,3.45905 -0.41234,0.002 -1.43183,-0.62495 -2.7474,-1.69049 -0.59741,-0.48387 -1.65117,-1.33684 -2.34169,-1.8955 -2.37201,-1.91904 -3.64635,-2.51124 -5.5721,-2.5894 -1.16453,-0.0473 -1.40518,-0.0154 -5.32759,0.70487 -1.59763,0.29338 -3.48497,0.32044 -4.16085,0.0597 -1.00214,-0.38668 -1.34447,-1.26597 -1.13588,-2.91751 0.22444,-1.77693 0.86895,-3.44964 1.86194,-4.83229 0.66165,-0.9213 0.8488,-1.34728 0.8482,-1.93062 -7.9e-4,-0.76334 -0.66504,-1.35525 -1.52086,-1.35525 -0.51755,0 -0.96185,0.28361 -2.6464,1.68928 -0.72754,0.6071 -1.34435,1.10382 -1.37069,1.10382 -0.0263,0 -0.0479,-6.54052 -0.0479,-14.53448 v -14.5346 h 26.77655 c 26.61176,0 26.7816,0.001 27.59483,0.21096 1.6448,0.42404 3.89718,0.42447 5.8369,0.001 0.85403,-0.1864 1.3324,-0.21208 3.95067,-0.21208 h 2.97898 v 29.41112 29.41112 l -1.65544,1.37525 c -3.03985,2.52536 -4.68675,4.52169 -5.98357,7.25315 -1.04484,2.20071 -1.69306,4.19886 -2.71754,8.37695 -0.3418,1.39397 -0.64506,2.61595 -0.67391,2.71552 -0.0498,0.17184 -1.47604,0.18103 -28.07996,0.18103 h -28.02751 z"
       id="path110699" />
    <path
       style="fill:#edb9ab;fill-opacity:1;fill-rule:evenodd;stroke-width:0.0362069;stroke-miterlimit:4;stroke-dasharray:none"
       d="m 221.74138,329.10453 c 0,-0.0184 -0.0701,-0.27614 -0.15586,-0.57281 -0.19564,-0.67707 -0.47893,-1.89356 -0.84673,-3.63601 -0.24278,-1.15016 -0.31656,-1.41523 -0.48947,-1.75862 -0.48473,-0.96263 -1.54137,-2.40862 -3.31921,-4.54226 -1.33843,-1.6063 -2.43986,-2.83194 -4.98263,-5.54451 -0.19484,-0.20785 -0.33795,-0.37791 -0.31803,-0.37791 0.0199,0 0.51683,0.46101 1.10425,1.02446 0.58741,0.56345 1.88268,1.80207 2.87837,2.75248 3.4942,3.33531 3.83624,3.71479 4.46569,4.95449 0.77112,1.51874 1.17416,3.15604 1.56023,6.3383 0.0892,0.73534 0.14897,1.35021 0.1328,1.36638 -0.0162,0.0162 -0.0294,0.0144 -0.0294,-0.004 z"
       id="path110855" />
    <path
       style="fill:#edb9ab;fill-opacity:1;fill-rule:evenodd;stroke-width:0.0362069;stroke-miterlimit:4;stroke-dasharray:none"
       d="m 221.38873,327.63362 c -0.17277,-0.70409 -0.43305,-1.83466 -0.5784,-2.51236 -0.33182,-1.54709 -0.39862,-1.76004 -0.73754,-2.35113 -0.91158,-1.58987 -3.39631,-4.65821 -6.39454,-7.89648 -1.17964,-1.27408 -1.3324,-1.44549 -1.26633,-1.42088 0.0846,0.0315 4.55187,4.31319 5.60963,5.37661 1.34595,1.35314 1.81869,2.01377 2.35203,3.28677 0.62067,1.48143 0.8765,2.72556 1.34728,6.55195 0.0166,0.13513 0.0194,0.24569 0.006,0.24569 -0.0133,0 -0.16548,-0.57607 -0.33824,-1.28017 z"
       id="path110894" />
    <path
       style="fill:#edb9ab;fill-opacity:1;fill-rule:evenodd;stroke-width:0.0362069;stroke-miterlimit:4;stroke-dasharray:none"
       d="m 221.68966,328.9001 c 0,-0.017 -0.11478,-0.49224 -0.25507,-1.05604 -0.14028,-0.5638 -0.41022,-1.73407 -0.59986,-2.60061 -0.18964,-0.86653 -0.39074,-1.69282 -0.4469,-1.8362 -0.5277,-1.34739 -3.15507,-4.67847 -6.83412,-8.66455 -0.64263,-0.69626 -1.15873,-1.27561 -1.14689,-1.28745 0.0118,-0.0118 0.52838,0.46401 1.14787,1.05744 5.7684,5.52577 5.87174,5.63656 6.55763,7.03041 0.64303,1.30677 1.00836,2.6735 1.34111,5.01725 0.17771,1.25172 0.2967,2.31022 0.26343,2.34348 -0.015,0.015 -0.0272,0.0133 -0.0272,-0.004 z"
       id="path110933" />
    <path
       style="fill:#edb9ab;fill-opacity:1;fill-rule:evenodd;stroke-width:0.0362069;stroke-miterlimit:4;stroke-dasharray:none"
       d="m 203.38468,339.42673 c 1.41975,-1.36722 2.92664,-3.19448 5.04583,-6.1186 2.82147,-3.89316 3.68005,-5.54499 3.1679,-6.09473 -0.23362,-0.25076 -0.39157,-0.29109 -1.13289,-0.28928 -0.72127,0.002 -1.16726,0.0525 -2.27586,0.25895 -1.48886,0.27727 -4.48461,0.95874 -6.13602,1.39581 -0.37351,0.0989 -0.70519,0.17974 -0.73707,0.17974 -0.0425,0 -0.058,-1.92008 -0.058,-7.20517 v -7.20517 l 0.30318,-0.0626 c 0.711,-0.14685 1.23843,-0.55745 1.68895,-1.31483 0.60843,-1.02284 1.61838,-3.47563 2.1355,-5.18635 0.0414,-0.13691 0.0689,-0.15449 0.23411,-0.14939 1.39183,0.043 10.84569,9.85133 13.94822,14.47129 0.20805,0.30979 0.49109,0.78486 0.62898,1.0557 0.1379,0.27084 0.25072,0.45897 0.25072,0.41806 0,-0.12197 -0.39346,-0.85399 -0.75897,-1.41204 -1.08144,-1.65112 -3.25762,-4.29403 -5.85457,-7.1102 -1.8345,-1.98937 -1.89045,-2.09008 -0.33488,-0.60282 4.48858,4.29145 5.53466,5.34356 6.0546,6.08946 0.29219,0.41917 0.78612,1.42327 1.02555,2.08477 0.39632,1.09499 0.72186,2.65662 0.97584,4.68104 0.17318,1.38045 0.19982,1.6335 0.16879,1.60326 -0.0517,-0.0503 -0.44283,-1.64748 -0.83605,-3.41361 -0.35461,-1.5927 -0.44092,-1.94186 -0.44006,-1.78017 1.5e-4,0.0261 0.12638,0.64095 0.28053,1.36638 0.60892,2.86558 0.96977,4.196 1.2591,4.64224 0.10151,0.15656 0.24824,0.14675 0.35979,-0.024 0.14954,-0.22898 0.12001,-1.74956 -0.0557,-2.86899 -0.57682,-3.67446 -1.43013,-5.73914 -3.29887,-7.98196 -0.23704,-0.28448 -1.02539,-1.12241 -1.7519,-1.86207 -0.72651,-0.73965 -1.57654,-1.61287 -1.88895,-1.94048 -1.59094,-1.66833 -4.27674,-4.71361 -5.81573,-6.59412 -2.03663,-2.4886 -3.11402,-3.71221 -4.14585,-4.70852 -0.97641,-0.94281 -1.60912,-1.38433 -2.26336,-1.57942 -0.33993,-0.10136 -0.41123,-0.10687 -0.66068,-0.051 -0.34763,0.0778 -0.66503,0.31389 -0.87095,0.64786 -0.13792,0.22368 -0.15551,0.29639 -0.14967,0.6189 0.0113,0.62361 0.36893,1.50131 1.05421,2.5871 0.98987,1.56839 0.9872,2.04291 -0.0228,4.03697 -0.4549,0.89816 -0.80591,1.48479 -1.08321,1.81035 l -0.13218,0.15517 -0.002,-5.65086 -0.002,-5.65087 h 16.78448 16.78449 v 12.28394 12.28393 l -0.42379,0.50486 c -0.79012,0.94126 -1.76996,2.00117 -2.86027,3.09401 -2.1573,2.16229 -4.10112,3.88177 -8.31441,7.35482 -1.37092,1.13007 -2.65931,2.38628 -3.45053,3.36434 l -0.38521,0.47617 h -8.31991 -8.3199 z"
       id="path110972" />
    <path
       style="fill:#edb9ab;fill-opacity:1;fill-rule:evenodd;stroke-width:0.0362069;stroke-miterlimit:4;stroke-dasharray:none"
       d="m 203.28836,339.51792 c 1.37595,-1.30392 2.92014,-3.16337 4.98336,-6.00078 2.49691,-3.43381 3.43183,-5.02141 3.45227,-5.86229 0.007,-0.28495 -0.003,-0.31175 -0.17976,-0.4735 -0.26106,-0.23924 -0.62488,-0.30761 -1.38862,-0.26095 -1.28399,0.0785 -4.11416,0.65013 -7.58954,1.53306 -0.66064,0.16784 -1.22508,0.30516 -1.25431,0.30516 -0.0361,0 -0.0531,-2.30916 -0.0531,-7.20879 v -7.20878 l 0.30531,-0.0601 c 0.88629,-0.17437 1.48866,-0.7772 2.10366,-2.10527 0.68558,-1.48046 1.07711,-2.44845 1.47283,-3.64123 0.27012,-0.8142 0.31268,-0.90672 0.42343,-0.92057 1.01047,-0.12643 7.98578,6.80367 12.38013,12.29988 1.03747,1.29761 1.80399,2.38997 2.21727,3.15977 0.27813,0.51805 0.31432,0.50017 0.0494,-0.0244 -0.77132,-1.52756 -3.30757,-4.67047 -6.99446,-8.66754 -0.85943,-0.93173 -1.06483,-1.22847 -0.40867,-0.59038 0.20542,0.19976 1.18814,1.14038 2.18383,2.09027 2.47968,2.36562 3.96875,3.86671 4.38483,4.42025 0.38761,0.51564 0.96921,1.64325 1.22721,2.37931 0.39557,1.12854 0.70592,2.66055 0.98259,4.85041 0.15942,1.26178 0.17419,1.4184 0.12956,1.37377 -0.0465,-0.0464 -0.52171,-2.0027 -0.8571,-3.52792 -0.18062,-0.82137 -0.33623,-1.46986 -0.34582,-1.4411 -0.042,0.12601 0.82787,3.95275 1.10599,4.86546 0.33003,1.08304 0.61606,1.32884 0.79534,0.68349 0.18355,-0.66068 -0.10694,-3.05602 -0.61635,-5.08246 -0.29146,-1.15943 -0.50841,-1.77276 -0.95664,-2.70441 -0.79768,-1.65798 -1.50731,-2.57412 -3.80619,-4.9138 -2.85224,-2.90285 -5.30247,-5.63912 -7.98966,-8.92241 -2.58046,-3.15286 -4.40196,-4.99694 -5.43581,-5.50316 -0.45639,-0.22348 -0.87179,-0.30976 -1.15432,-0.23978 -0.46737,0.11576 -0.87401,0.50374 -0.99365,0.94805 -0.14533,0.53971 0.22477,1.57885 1.02069,2.8658 1.01338,1.63857 1.01292,2.06717 -0.004,4.07564 -0.4549,0.89816 -0.80591,1.48479 -1.08321,1.81035 l -0.13218,0.15517 -0.002,-5.65086 -0.002,-5.65087 h 16.78448 16.78449 v 12.28863 12.28862 l -0.40075,0.47431 c -2.31306,2.73762 -5.16528,5.45992 -9.4527,9.02217 -0.93879,0.78001 -1.97457,1.64275 -2.30173,1.9172 -0.78339,0.6572 -2.3024,2.1752 -2.84286,2.84097 l -0.43037,0.53017 h -8.32797 -8.32796 z"
       id="path111011" />
    <path
       style="fill:#edb9ab;fill-opacity:1;fill-rule:evenodd;stroke-width:0.0362069;stroke-miterlimit:4;stroke-dasharray:none"
       d="m 221.32968,323.75431 c -0.12192,-0.5486 -0.52237,-1.68228 -0.80209,-2.27077 -0.32507,-0.68386 -0.73914,-1.3364 -1.19661,-1.88574 -0.32483,-0.39006 -2.06303,-2.08052 -5.8231,-5.66316 l -1.94903,-1.85705 -1.12439,-1.5 c -2.47941,-3.30765 -4.55883,-5.9357 -5.699,-7.20259 -0.23682,-0.26315 -0.41121,-0.47845 -0.38754,-0.47845 0.0237,0 0.31496,0.24438 0.6473,0.54307 0.75516,0.67869 1.97169,1.9932 3.04917,3.29477 3.10387,3.74938 3.92337,4.70461 5.92188,6.9027 0.59101,0.65003 1.77399,1.89179 2.62885,2.75946 1.58143,1.60514 2.14311,2.20973 2.68391,2.88893 1.00641,1.26397 1.79174,2.76386 2.27214,4.33952 l 0.13011,0.42673 h -0.14276 c -0.13163,0 -0.14789,-0.0232 -0.20884,-0.29742 z"
       id="path111050" />
    <path
       style="fill:#edb9ab;fill-opacity:1;fill-rule:evenodd;stroke-width:0.0724138;stroke-miterlimit:4;stroke-dasharray:none"
       d="m 141.68716,324.26061 c -0.14814,-0.71938 -0.0864,-1.75124 0.14111,-2.35939 0.53603,-1.43266 1.60845,-2.72233 5.68227,-6.83336 3.9501,-3.98619 7.9461,-7.7828 10.94985,-10.40348 1.33522,-1.16494 0.88683,-0.6169 -0.83643,1.02232 -0.92163,0.87668 -3.74724,3.61785 -6.27913,6.09149 -2.5319,2.47363 -5.20432,5.08333 -5.93872,5.79932 -2.50416,2.4414 -3.43163,4.04167 -3.57239,6.16387 -0.0552,0.83184 -0.0708,0.88716 -0.14656,0.51923 z"
       id="path111089" />
    <path
       style="fill:#edb9ab;fill-opacity:1;fill-rule:evenodd;stroke-width:0.0256021;stroke-miterlimit:4;stroke-dasharray:none"
       d=""
       id="path111128" />
    <path
       style="fill:#edb9ab;fill-opacity:1;fill-rule:evenodd;stroke-width:0.0256021;stroke-miterlimit:4;stroke-dasharray:none"
       d="m 147.92026,337.35042 c -0.65152,-1.06802 -1.72821,-3.2869 -2.72693,-5.61981 -0.15932,-0.37214 -0.48009,-1.04694 -0.71283,-1.49955 -0.23274,-0.45261 -0.61745,-1.20147 -0.85491,-1.66414 -0.68599,-1.33659 -1.02007,-2.16011 -1.23891,-3.05397 -0.10213,-0.41715 -0.17442,-0.83979 -0.13762,-0.80464 0.0248,0.0237 3.05126,6.32735 3.5971,7.4922 0.92344,1.97069 1.69543,3.79223 2.08536,4.92051 0.0687,0.19877 0.12014,0.37412 0.11431,0.38965 -0.006,0.0155 -0.0623,-0.0566 -0.12557,-0.16025 z"
       id="path111167" />
    <path
       style="fill:#edb9ab;fill-opacity:1;fill-rule:evenodd;stroke-width:0.0256021;stroke-miterlimit:4;stroke-dasharray:none"
       d="m 148.00925,338.36899 c -0.80008,-0.54368 -3.00402,-4.83046 -4.72921,-9.19859 -0.48106,-1.21802 -0.83847,-2.1906 -0.814,-2.21506 0.009,-0.009 0.0799,0.13529 0.15656,0.3217 0.1331,0.32378 0.64496,1.3508 1.56342,3.13689 0.23274,0.45261 0.6075,1.25085 0.83281,1.77386 1.25337,2.90958 2.38571,5.13366 3.0395,5.97 0.0979,0.1253 0.17807,0.24462 0.17807,0.26517 0,0.0625 -0.0857,0.0421 -0.22715,-0.054 z"
       id="path111206" />
    <path
       style="fill:#edb9ab;fill-opacity:1;fill-rule:evenodd;stroke-width:0.0256021;stroke-miterlimit:4;stroke-dasharray:none"
       d="m 163.85371,329.60208 c -1.23854,-0.29302 -2.2843,-0.50869 -2.96253,-0.61099 -0.9364,-0.14123 -1.44127,-0.16086 -3.51115,-0.13653 -2.4994,0.0294 -3.30795,-0.016 -4.26003,-0.239 -0.48266,-0.11306 -0.75316,-0.21214 -1.65709,-0.607 -0.78699,-0.34378 -0.81423,-0.35914 -0.79319,-0.44744 0.0419,-0.17599 0.14403,-0.23773 0.39308,-0.23773 0.2735,0 0.48125,0.0666 1.08581,0.34814 0.54417,0.25341 0.88814,0.36074 1.63917,0.51151 1.23877,0.24867 2.31087,0.35203 4.17314,0.40231 1.6134,0.0436 2.22404,0.093 3.63355,0.29407 0.99687,0.14223 3.25007,0.5747 3.31085,0.63549 0.007,0.007 0.008,0.0855 0.002,0.17358 l -0.0113,0.1602 z"
       id="path111245" />
    <path
       style="fill:#edb9ab;fill-opacity:1;fill-rule:evenodd;stroke-width:0.0256021;stroke-miterlimit:4;stroke-dasharray:none"
       d="m 163.52454,342.76317 c -3.3022,-1.92196 -6.20975,-4.59016 -8.89525,-8.16295 -1.00715,-1.33992 -2.23408,-3.13446 -2.86216,-4.18629 -0.58682,-0.98271 -1.05336,-2.01948 -1.10272,-2.45049 -0.0162,-0.14167 -0.0125,-0.1544 0.0265,-0.0914 0.0249,0.0402 0.33644,0.5669 0.69222,1.17038 2.21812,3.76243 4.13326,6.35536 6.39921,8.66398 0.92547,0.94289 1.43082,1.41475 2.366,2.20919 0.37839,0.32144 0.88548,0.76947 1.12687,0.99562 1.07081,1.00319 1.41881,1.24486 2.52429,1.75302 0.36173,0.16628 0.68238,0.31658 0.71255,0.33401 0.0343,0.0198 -0.055,0.0316 -0.23773,0.0314 l -0.2926,-3.3e-4 -0.45718,-0.2661 z"
       id="path111284" />
    <path
       style="fill:#edb9ab;fill-opacity:1;fill-rule:evenodd;stroke-width:0.0512043;stroke-miterlimit:4;stroke-dasharray:none"
       d="m 179.72704,334.79331 c -0.76808,-0.089 -1.4763,-0.30059 -3.95005,-1.18007 -2.55756,-0.90927 -3.19739,-1.15607 -4.31579,-1.66473 -1.7529,-0.79724 -3.08845,-1.25537 -5.23015,-1.79406 -1.10516,-0.27797 -1.24623,-0.33053 -1.2678,-0.47237 -0.019,-0.12497 0.005,-0.15122 0.10972,-0.12102 0.0737,0.0212 0.59483,0.15759 1.15808,0.30307 2.26041,0.58381 4.81482,1.43565 7.81316,2.60552 3.64199,1.42099 5.06723,1.7714 7.18238,1.76583 2.04834,-0.005 3.8833,-0.40986 7.73944,-1.70598 l 2.54585,-0.85571 -0.0222,0.2621 -0.0222,0.26209 -0.87779,0.3152 c -5.62603,2.02017 -8.28664,2.57865 -10.86262,2.28013 z"
       id="path111323" />
    <path
       style="fill:#edb9ab;fill-opacity:1;fill-rule:evenodd;stroke-width:0.0512043;stroke-miterlimit:4;stroke-dasharray:none"
       d="m 177.27655,345.80493 c -4.03799,-0.15144 -7.12695,-0.46655 -8.82117,-0.89986 -0.73156,-0.18711 -2.22568,-0.78467 -3.39471,-1.35769 -0.84236,-0.41291 -0.92133,-0.46684 -0.69161,-0.4724 0.16316,-0.004 0.56816,0.13025 1.09214,0.36188 1.20414,0.53229 3.06407,1.19732 3.95183,1.41298 2.75267,0.66871 9.30249,1.0335 13.97146,0.77813 2.92031,-0.15973 6.4045,-0.56055 7.95495,-0.91513 0.13523,-0.0309 0.16458,-0.007 0.16458,0.13699 0,0.14584 -0.0452,0.1813 -0.27431,0.21508 -0.15087,0.0222 -0.71868,0.10686 -1.26182,0.18804 -1.15415,0.1725 -2.95207,0.34246 -4.75468,0.44946 -1.30183,0.0773 -6.73754,0.1475 -7.93666,0.10252 z"
       id="path111362" />
    <path
       style="fill:#edb9ab;fill-opacity:1;fill-rule:evenodd;stroke-width:0.0512043;stroke-miterlimit:4;stroke-dasharray:none"
       d="m 191.50402,331.95902 c 0,-0.11577 0.0412,-0.24341 0.0914,-0.28363 0.19641,-0.15712 5.1859,-1.63581 8.57672,-2.54181 5.12388,-1.36907 8.87019,-2.15765 10.2503,-2.15765 0.95087,0 1.27833,0.18327 1.26571,0.70839 -0.005,0.19456 -0.009,0.19732 -0.0806,0.0498 -0.13203,-0.27267 -0.40157,-0.35651 -1.11575,-0.34704 -0.76583,0.0102 -1.8535,0.16703 -3.2608,0.47031 -0.54313,0.11705 -1.64585,0.32722 -2.45049,0.46706 -1.66956,0.29014 -2.23332,0.40487 -3.27966,0.66743 -1.97749,0.49622 -5.3649,1.55819 -8.50134,2.6652 -0.79856,0.28185 -1.46173,0.51246 -1.47373,0.51246 -0.012,0 -0.0218,-0.0947 -0.0218,-0.21049 z"
       id="path111401" />
    <path
       style="fill:#edb9ab;fill-opacity:1;fill-rule:evenodd;stroke-width:0.0512043;stroke-miterlimit:4;stroke-dasharray:none"
       d=""
       id="path111440" />
    <path
       style="fill:#edb9ab;fill-opacity:1;fill-rule:evenodd;stroke-width:0.0512043;stroke-miterlimit:4;stroke-dasharray:none"
       d="m 191.25928,361.41081 c -0.0258,-0.33191 -0.0478,-1.26182 -0.0487,-2.06646 -0.003,-2.33762 -0.13471,-3.12677 -0.55473,-3.31814 -0.29756,-0.13558 -0.66538,-0.0991 -2.08492,0.20674 -3.91359,0.84322 -7.56284,1.21085 -10.23305,1.03092 -1.13947,-0.0768 -1.98033,-0.17533 -2.28657,-0.26799 -0.12045,-0.0364 -0.12801,-0.36713 -0.12801,-5.60123 v -5.5625 l 2.39563,0.051 c 2.36192,0.0503 5.79463,-0.0295 7.99153,-0.1857 5.79413,-0.4119 10.37345,-1.61825 13.67885,-3.60347 2.97339,-1.78581 6.16001,-5.303 9.98577,-11.02167 1.356,-2.02692 1.84615,-3.04455 1.73826,-3.60892 -0.1528,-0.7993 -1.69561,-0.7298 -6.15838,0.27742 -5.11457,1.15434 -9.85577,2.49291 -15.8065,4.46263 -3.40597,1.12739 -5.14553,1.6132 -6.58341,1.83854 -1.1204,0.17559 -2.94683,0.16154 -4.02319,-0.031 -0.78033,-0.13954 -2.17737,-0.52112 -2.90768,-0.79418 l -0.31088,-0.11624 v -8.03645 c 0,-4.42005 0.0151,-8.03645 0.0336,-8.03645 0.0185,0 0.37232,0.25879 0.78635,0.57508 1.94983,1.48957 3.79764,2.48359 4.89604,2.6338 1.35508,0.18532 3.426,-0.73421 6.97539,-3.09721 0.92533,-0.61604 1.96654,-1.2726 2.31379,-1.45902 1.10747,-0.59455 2.18179,-0.91559 3.54467,-1.05926 0.44442,-0.0469 0.49928,-0.0632 0.23648,-0.0707 -0.9146,-0.026 -2.26943,0.28827 -3.25466,0.75498 -0.85339,0.40425 -1.19256,0.60739 -3.15552,1.88994 -0.85733,0.56016 -1.57357,1.00368 -1.59165,0.9856 -0.0359,-0.0359 2.05707,-1.7929 2.82125,-2.36834 0.5993,-0.45128 1.19574,-0.74264 2.28997,-1.11865 1.20648,-0.41459 1.90433,-0.54534 2.94018,-0.55088 1.02479,-0.005 2.80198,0.16895 2.65711,0.2608 -0.0533,0.0338 -0.57419,0.069 -1.15755,0.0782 l -1.06066,0.0168 0.84121,0.0251 c 1.39298,0.0416 4.95091,-0.11581 5.48518,-0.24269 0.5917,-0.14051 1.00936,-0.38154 1.34929,-0.77868 0.5117,-0.5978 1.48304,-2.70578 2.20131,-4.77722 0.37304,-1.07582 0.38445,-1.09693 0.58509,-1.08185 0.52541,0.0395 2.01002,1.27266 4.56035,3.78796 3.94471,3.89053 7.7337,8.22865 9.39214,10.7533 0.45836,0.69776 0.57203,0.84692 0.41811,0.54862 -0.64208,-1.24434 -3.19688,-4.3927 -6.42546,-7.91829 -0.65819,-0.71874 -1.18467,-1.31883 -1.16997,-1.33353 0.0287,-0.0287 0.18565,0.11979 3.3565,3.17597 3.29331,3.1742 3.7022,3.63602 4.31087,4.86889 0.42653,0.86395 0.72371,1.74186 0.97926,2.8929 0.24204,1.09023 0.56488,3.30801 0.59274,4.07201 0.0237,0.64844 0.25615,1.28014 0.48679,1.3226 0.4799,0.0883 0.32701,-2.52774 -0.3014,-5.15727 -0.54839,-2.29465 -1.39641,-4.02436 -2.78987,-5.69045 -0.30284,-0.36209 -1.33469,-1.46481 -2.29299,-2.45049 -2.95173,-3.03605 -5.16683,-5.52354 -8.04467,-9.0339 -0.39579,-0.48279 -0.76897,-0.9354 -0.82929,-1.0058 -0.10435,-0.1218 0.26883,-0.12801 7.69203,-0.12801 h 7.80171 l -0.004,14.86753 -0.004,14.86753 -0.61512,0.50736 c -0.73863,0.60924 -2.48356,2.35455 -3.10385,3.10454 -0.93914,1.1355 -1.8855,2.74621 -2.60528,4.43421 -0.84676,1.9858 -1.28932,3.44648 -2.48229,8.19296 -1.01424,4.03534 -1.61487,6.29043 -2.24542,8.43042 l -0.3718,1.26182 H 201.6354 191.30626 l -0.047,-0.60348 z m 30.34032,-32.9301 c -0.0269,-0.1072 -0.063,-0.1808 -0.0803,-0.16356 -0.0172,0.0172 -0.009,0.11906 0.0176,0.22626 0.0269,0.1072 0.063,0.1808 0.0803,0.16356 0.0172,-0.0172 0.009,-0.11906 -0.0176,-0.22626 z m -0.12768,-0.42126 c -0.0234,-0.0584 -0.0407,-0.041 -0.0442,0.0442 -0.003,0.0771 0.0141,0.12032 0.0384,0.096 0.0243,-0.0243 0.0269,-0.0874 0.006,-0.1402 z m -0.0731,-0.2926 c -0.0234,-0.0583 -0.0407,-0.041 -0.0442,0.0442 -0.003,0.0771 0.0141,0.12031 0.0384,0.096 0.0243,-0.0243 0.0269,-0.0874 0.006,-0.14021 z m -0.16547,-0.74857 c -0.0716,-0.30386 -0.14411,-0.53862 -0.16105,-0.52168 -0.0169,0.0169 0.0278,0.27942 0.0994,0.58328 0.0716,0.30386 0.14411,0.53862 0.16105,0.52168 0.0169,-0.0169 -0.0278,-0.27942 -0.0995,-0.58328 z m -0.21774,-0.95265 c -0.0275,-0.1468 -0.0647,-0.25228 -0.0826,-0.23439 -0.0179,0.0179 -0.01,0.15261 0.0176,0.29941 0.0275,0.1468 0.0647,0.25228 0.0826,0.2344 0.0179,-0.0179 0.01,-0.15262 -0.0176,-0.29942 z m -0.1463,-0.65834 c -0.0275,-0.1468 -0.0647,-0.25228 -0.0826,-0.2344 -0.0179,0.0179 -0.01,0.15262 0.0176,0.29942 0.0275,0.1468 0.0647,0.25228 0.0826,0.2344 0.0179,-0.0179 0.01,-0.15262 -0.0176,-0.29942 z m -0.13036,-0.57097 c -0.0203,-0.0503 -0.0369,-0.009 -0.0369,0.0914 0,0.10058 0.0166,0.14172 0.0369,0.0914 0.0203,-0.0503 0.0203,-0.13258 0,-0.18287 z m -0.0716,-0.28802 c -0.0234,-0.0583 -0.0407,-0.041 -0.0442,0.0442 -0.003,0.0771 0.0141,0.12032 0.0384,0.096 0.0243,-0.0243 0.0269,-0.0874 0.006,-0.1402 z m -0.34257,-1.28899 c 0,-0.0325 -0.0499,-0.12306 -0.11091,-0.20116 -0.10285,-0.13166 -0.10466,-0.12736 -0.0248,0.0592 0.0861,0.20127 0.13574,0.25317 0.13574,0.14199 z"
       id="path111479" />
    <path
       style="fill:#edb9ab;fill-opacity:1;fill-rule:evenodd;stroke-width:0.0512043;stroke-miterlimit:4;stroke-dasharray:none"
       d=""
       id="path111518" />
    <path
       style="fill:#edb9ab;fill-opacity:1;fill-rule:evenodd;stroke-width:0.0512043;stroke-miterlimit:4;stroke-dasharray:none"
       d="m 191.50402,344.83162 c 0,-0.11393 0.10208,-0.16118 0.56691,-0.2624 2.80133,-0.61001 5.09749,-1.36962 6.97759,-2.30832 3.06509,-1.53035 4.89765,-3.32602 8.33426,-8.16651 1.38209,-1.94668 3.7527,-5.14029 3.78881,-5.10418 0.0794,0.0794 -1.39825,2.35306 -2.68039,4.12449 -2.17094,2.9994 -3.34773,4.43787 -4.9152,6.00812 -3.03772,3.04314 -6.05913,4.58138 -11.19076,5.69738 -0.84702,0.1842 -0.88122,0.18464 -0.88122,0.0114 z"
       id="path111557" />
    <path
       style="fill:#edb9ab;fill-opacity:1;fill-rule:evenodd;stroke-width:0.0512043;stroke-miterlimit:4;stroke-dasharray:none"
       d="m 165.09724,378.69098 c -1.50723,-0.2664 -3.22323,-0.86461 -4.75468,-1.65751 -1.73031,-0.89585 -2.73062,-1.68212 -3.58853,-2.82065 l -0.43466,-0.57685 v -18.39186 -18.39187 l 1.40811,1.41213 c 1.87942,1.88476 3.43731,3.1219 5.49065,4.36019 1.76366,1.0636 3.97584,2.03836 5.40656,2.38231 2.37914,0.57196 6.31391,0.86904 11.46809,0.86586 6.18326,-0.004 10.07634,-0.38388 13.82033,-1.34923 3.93072,-1.01349 6.52903,-2.37738 9.13016,-4.79253 l 0.74978,-0.69617 v 19.24185 19.24185 l -0.17925,0.11745 c -0.0986,0.0646 -0.41953,0.20165 -0.7132,0.30457 -0.78228,0.27414 -1.83656,0.2707 -2.65527,-0.009 -1.04308,-0.35592 -1.90704,-0.89692 -3.06083,-1.91665 -3.59417,-3.17656 -5.96862,-9.75604 -5.97434,-16.5546 -0.002,-2.88661 -0.17675,-3.51768 -0.97167,-3.51768 -0.15512,0 -0.81437,0.11398 -1.46499,0.25331 -3.68805,0.78974 -6.12197,1.08168 -9.04646,1.08509 -2.00041,0.002 -3.11939,-0.11136 -4.21427,-0.42821 -0.68805,-0.19912 -0.94286,-0.32455 -2.1132,-1.04026 -0.40237,-0.24606 -0.85223,-0.49779 -0.99971,-0.55941 l -0.26813,-0.11203 -0.0404,0.52876 c -0.0222,0.29082 -0.0589,1.05544 -0.0814,1.69915 -0.22521,6.42303 -1.0323,14.18988 -1.79057,17.23131 -0.81741,3.27863 -1.28174,3.91631 -3.03735,4.17124 -0.64607,0.0938 -1.22293,0.0714 -2.08475,-0.0809 z"
       id="path111596" />
    <path
       style="fill:#edb9ab;fill-opacity:1;fill-rule:evenodd;stroke-width:0.0512043;stroke-miterlimit:4;stroke-dasharray:none"
       d="m 201.00416,378.61768 c -3.75556,-0.44847 -7.04581,-4.07139 -8.90065,-9.80053 -0.8653,-2.67273 -1.39675,-5.88578 -1.52186,-9.20097 -0.0378,-1.00238 -0.0248,-1.30377 0.0724,-1.67222 0.0652,-0.2472 0.11839,-0.55991 0.11824,-0.69491 -3.7e-4,-0.32088 -0.22651,-0.68315 -0.52181,-0.83585 -0.41156,-0.21283 -0.78662,-0.13909 -5.54928,1.09106 -1.05653,0.27289 -1.47521,0.34428 -2.39712,0.40874 -1.43666,0.10044 -4.08566,0.0981 -4.69833,-0.004 -0.26151,-0.0437 -0.94307,-0.1006 -1.51458,-0.12654 l -1.03912,-0.0472 -0.27757,-0.25962 c -0.15266,-0.14279 -0.60097,-0.56365 -0.99623,-0.93523 -0.89124,-0.83784 -1.22695,-1.06862 -1.4669,-1.00839 -0.151,0.0379 -0.17213,0.0226 -0.13973,-0.10131 0.021,-0.0803 0.0766,-0.14595 0.12364,-0.14595 0.047,0 0.46286,0.23189 0.92411,0.51531 1.06215,0.65264 1.8775,1.04289 2.48976,1.19168 1.05744,0.25698 2.25411,0.36308 4.05451,0.35949 2.72115,-0.005 5.21684,-0.29297 8.44736,-0.97327 1.97878,-0.41671 2.27191,-0.43858 2.5223,-0.18819 0.30009,0.3001 0.34076,0.62395 0.40536,3.2279 0.0446,1.7975 0.10422,2.81157 0.21509,3.65745 0.70538,5.3821 2.67353,9.98946 5.39323,12.62533 1.56078,1.51268 2.88524,2.27169 4.33354,2.48346 0.84535,0.12361 1.41284,0.0169 2.62113,-0.49266 0.0646,-0.0272 0.0914,0.0501 0.0914,0.26367 0,0.26238 -0.0265,0.31233 -0.20116,0.37879 -0.65776,0.25034 -1.81068,0.37693 -2.58773,0.28414 z"
       id="path111635" />
    <path
       style="fill:#edb9ab;fill-opacity:1;fill-rule:evenodd;stroke-width:0.0724138;stroke-miterlimit:4;stroke-dasharray:none"
       d="m 212.21029,361.49879 c 0.18959,-0.49407 1.52436,-5.4698 2.28909,-8.53327 1.43225,-5.73749 2.01564,-7.56867 3.14968,-9.8865 1.35177,-2.76282 2.89848,-4.52608 6.90898,-7.87626 10.16543,-8.49172 13.85086,-13.30029 16.62681,-21.69386 2.37172,-7.1713 4.5603,-19.60501 5.18655,-29.4658 0.0686,-1.08019 0.0776,-1.11206 0.31513,-1.11206 0.3159,0 0.31569,0.0518 -0.0144,3.47225 -0.61687,6.39133 -1.40479,11.74305 -2.5501,17.32085 -1.79479,8.74082 -3.63173,14.19029 -6.2894,18.6582 -2.42635,4.07905 -5.28478,7.22536 -9.26362,10.19661 -0.96725,0.7223 -2.57328,1.9224 -3.56897,2.6669 -3.86317,2.88857 -5.7336,4.96801 -7.23838,8.04725 -0.81342,1.6645 -1.22375,3.00186 -2.58682,8.43104 -1.21142,4.82513 -2.0492,8.05741 -2.39306,9.23276 -0.16695,0.57063 -0.24334,0.69827 -0.41788,0.69827 -0.14808,0 -0.19518,-0.048 -0.15357,-0.15638 z"
       id="path111674" />
    <path
       style="fill:#edb9ab;fill-opacity:1;fill-rule:evenodd;stroke-width:0.0724138;stroke-miterlimit:4;stroke-dasharray:none"
       d="m 198.31079,352.31897 4.4e-4,-9.33621 0.75637,-0.38827 c 3.34577,-1.71751 6.84058,-5.42363 10.99845,-11.66345 2.30658,-3.46156 2.22471,-4.25432 -0.40767,-3.94753 -1.80018,0.2098 -6.34601,1.22382 -10.23597,2.2833 l -1.11206,0.30288 v -7.52753 -7.52754 l 1.43184,-0.0683 c 1.68093,-0.0802 2.36378,-0.25551 2.90679,-0.74609 0.60459,-0.5462 1.44947,-2.26591 2.3346,-4.7519 0.29479,-0.82797 0.4984,-1.25271 0.6114,-1.27538 0.49415,-0.0992 1.9282,1.09626 5.22884,4.35885 1.335,1.31961 2.33586,2.28774 2.22414,2.15141 -0.11172,-0.13633 -0.1473,-0.22943 -0.0791,-0.20689 0.21638,0.0715 5.86126,5.62538 6.30922,6.20755 0.88296,1.1475 1.55925,2.84498 1.93255,4.85066 0.24085,1.294 0.479,3.07566 0.479,3.58347 0,0.49794 0.27817,1.17515 0.4827,1.17515 0.21811,0 0.27441,-0.47088 0.20877,-1.74624 -0.0602,-1.17031 -0.42355,-3.21118 -0.73885,-4.15031 -0.086,-0.25603 -0.13286,-0.3375 -0.10421,-0.18103 0.0628,0.34332 -0.0265,0.37452 -0.14814,0.0517 -0.1581,-0.41956 -0.24254,-0.97479 -0.12193,-0.80172 0.15687,0.22509 0.13545,0.0645 -0.0548,-0.41103 -0.0962,-0.24045 -0.21247,-0.38658 -0.27621,-0.34719 -0.0697,0.0431 -0.085,0.003 -0.0417,-0.11011 0.0824,-0.21479 -0.18125,-0.75739 -0.91021,-1.87305 -0.62236,-0.9525 -1.32251,-1.74672 -3.9864,-4.52201 -2.36123,-2.45997 -4.04573,-4.34904 -6.39147,-7.16765 -3.86977,-4.64988 -5.30104,-6.0441 -6.5417,-6.37236 -0.40369,-0.10681 -0.52232,-0.0988 -0.85182,0.0576 -0.21055,0.0999 -0.48164,0.34157 -0.60244,0.53702 -0.28563,0.46216 -0.20627,1.05671 0.2741,2.05365 0.47164,0.97878 1.31852,2.44196 1.22745,2.12069 -0.0403,-0.14225 -0.30235,-0.66186 -0.58228,-1.1547 -0.51621,-0.90882 -0.9581,-1.93494 -0.87085,-2.02219 0.0906,-0.0906 1.33941,1.57438 1.6069,2.1424 0.23515,0.49934 0.26794,0.70189 0.26794,1.65518 0,0.8673 -0.0491,1.23214 -0.24384,1.81034 -0.63235,1.87784 -1.92197,3.69526 -2.75616,3.88413 -0.48283,0.10932 -1.28465,0.1234 -1.8362,0.0322 -0.51526,-0.0852 -0.55111,-0.41748 -0.0517,-0.47946 l 0.33621,-0.0417 -0.33621,-0.0166 -0.3362,-0.0165 v -14.89655 -14.89655 h 24 24 l -0.001,0.43965 c -0.006,2.0324 -0.90724,9.94015 -1.65929,14.56035 -1.53847,9.45145 -3.42062,16.27743 -5.79392,21.01269 -2.74582,5.47853 -6.1966,9.36086 -14.52823,16.34511 -2.61178,2.1894 -4.63693,4.2375 -5.52606,5.58866 -1.22989,1.86902 -2.35435,4.48904 -3.15277,7.34605 -0.19619,0.70205 -0.77591,2.92904 -1.28826,4.94886 -0.95021,3.74598 -1.58272,6.10558 -2.04508,7.62932 l -0.25897,0.85344 h -6.87305 -6.87305 z m 20.99956,-30.73734 c 0,-0.0215 -0.0815,-0.10294 -0.18104,-0.18103 -0.16407,-0.12868 -0.16773,-0.12502 -0.0391,0.0391 0.13514,0.17232 0.2201,0.22711 0.2201,0.14197 z m -0.93104,-1.24138 c 0,-0.0215 -0.0815,-0.10294 -0.18103,-0.18103 -0.16408,-0.12868 -0.16774,-0.12502 -0.0391,0.0391 0.13514,0.17232 0.22009,0.22712 0.22009,0.14197 z m -0.41379,-0.51724 c 0,-0.0215 -0.0815,-0.10294 -0.18104,-0.18103 -0.16407,-0.12868 -0.16773,-0.12502 -0.0391,0.0391 0.13514,0.17231 0.22009,0.22711 0.22009,0.14197 z m -0.4138,-0.51724 c 0,-0.0215 -0.0815,-0.10295 -0.18103,-0.18103 -0.16407,-0.12868 -0.16773,-0.12502 -0.0391,0.0391 0.13514,0.17232 0.22009,0.22712 0.22009,0.14198 z m -0.41379,-0.51387 c 0,-0.0196 -0.10474,-0.12438 -0.23276,-0.23276 l -0.23276,-0.19707 0.19707,0.23276 c 0.1852,0.21873 0.26845,0.27985 0.26845,0.19707 z m -0.62069,-0.72414 c 0,-0.0196 -0.10474,-0.12437 -0.23276,-0.23276 l -0.23276,-0.19707 0.19707,0.23276 c 0.1852,0.21874 0.26845,0.27985 0.26845,0.19707 z m -0.62069,-0.72414 c 0,-0.0196 -0.10474,-0.12437 -0.23276,-0.23276 l -0.23275,-0.19707 0.19706,0.23276 c 0.1852,0.21874 0.26845,0.27986 0.26845,0.19707 z m -0.72414,-0.82333 c 0,-0.0173 -0.17456,-0.19185 -0.38793,-0.38793 l -0.38793,-0.3565 0.3565,0.38793 c 0.33182,0.36108 0.41936,0.4355 0.41936,0.3565 z m -1.03448,-1.13793 c 0,-0.0173 -0.17457,-0.19185 -0.38793,-0.38793 l -0.38793,-0.3565 0.3565,0.38793 c 0.33182,0.36108 0.41936,0.4355 0.41936,0.3565 z m -13.47913,-2.91078 c 0.40386,-0.18803 0.65374,-0.4076 1.00157,-0.8801 0.45969,-0.62444 1.51204,-2.64277 1.51204,-2.89998 0,-0.0737 -0.32351,0.51299 -0.71892,1.30369 -0.92171,1.84314 -1.41396,2.34546 -2.56395,2.61639 -0.36862,0.0868 -0.37287,0.0923 -0.0792,0.10116 0.17069,0.005 0.55249,-0.10336 0.84845,-0.24116 z m 2.58213,-4.32503 c -0.0287,-0.0711 -0.0522,-0.0129 -0.0522,0.12931 0,0.14224 0.0235,0.20043 0.0522,0.12931 0.0287,-0.0711 0.0287,-0.1875 0,-0.25862 z m 0.002,-0.82112 c -0.033,-0.0825 -0.0575,-0.058 -0.0625,0.0625 -0.004,0.10905 0.02,0.17015 0.0543,0.13578 0.0344,-0.0344 0.038,-0.1236 0.008,-0.19828 z"
       id="path111713" />
    <path
       style="fill:#edb9ab;fill-opacity:1;fill-rule:evenodd;stroke-width:0.0724138;stroke-miterlimit:4;stroke-dasharray:none"
       d="m 222.0632,328.11207 c -0.0994,-0.86767 -0.27118,-2.10859 -0.38164,-2.7576 -0.18456,-1.08441 -0.19333,-1.38348 -0.036,-1.22611 0.19508,0.19508 0.58179,2.65432 0.63456,4.03543 0.0321,0.83923 0.037,1.52587 0.0111,1.52587 -0.026,0 -0.12859,-0.70992 -0.22803,-1.57759 z"
       id="path111752" />
    <path
       style="fill:#edb9ab;fill-opacity:1;fill-rule:evenodd;stroke-width:0.0724138;stroke-miterlimit:4;stroke-dasharray:none"
       d=""
       id="path111791" />
    <path
       style="fill:#edb9ab;fill-opacity:1;fill-rule:evenodd;stroke-width:0.0724138;stroke-miterlimit:4;stroke-dasharray:none"
       d="m 123.32674,234.23276 c 0.83067,-6.25673 2.06693,-10.26857 5.08777,-16.51054 1.28633,-2.65794 1.66294,-3.28303 5.18239,-8.60153 1.65662,-2.50345 3.35994,-5.1017 3.78516,-5.77389 3.14355,-4.96942 7.78809,-8.77274 15.31191,-12.53862 1.06792,-0.53452 2.88874,-1.41166 4.04627,-1.9492 1.15752,-0.53754 2.84942,-1.33551 3.75976,-1.77326 4.05707,-1.95091 6.51329,-2.93468 8.76673,-3.51127 2.56052,-0.65516 4.80116,-0.73925 5.92983,-0.22253 1.05634,0.48361 1.87364,1.68777 2.5157,3.70647 0.25537,0.80291 1.68038,7.37595 1.83384,8.45885 0.0723,0.51038 -0.28622,-0.71617 -0.93745,-3.20689 -1.02466,-3.91892 -1.98168,-6.84528 -2.49468,-7.62823 -0.0913,-0.13932 -0.42971,-0.37621 -0.75204,-0.52641 -0.54506,-0.25398 -0.7055,-0.27562 -2.29296,-0.30921 -1.42197,-0.0301 -1.88161,-2.9e-4 -2.75353,0.17854 -5.40449,1.10847 -20.17414,8.20977 -25.89015,12.4481 -2.39173,1.77342 -5.21979,5.11924 -8.74817,10.34977 -3.12783,4.63675 -5.95175,9.47401 -7.95707,13.63016 -1.93196,4.00408 -2.69478,6.17727 -3.15748,8.99521 -0.28755,1.7512 -0.83843,5.73846 -0.83843,6.06846 0,0.083 -0.11729,0.13843 -0.29312,0.13843 h -0.29312 z"
       id="path111830" />
    <path
       style="fill:#edb9ab;fill-opacity:1;fill-rule:evenodd;stroke-width:0.0724138;stroke-miterlimit:4;stroke-dasharray:none"
       d="m 238.77347,237.75223 c -0.12213,-0.89735 -0.33835,-2.77206 -0.48048,-4.16602 -1.26643,-12.42034 -4.01439,-21.33567 -8.76755,-28.44493 -1.47708,-2.20925 -2.65881,-3.63501 -4.72463,-5.70026 -3.78409,-3.78305 -7.92141,-6.4535 -14.1284,-9.11925 -1.43377,-0.61576 -2.97948,-1.20786 -3.87931,-1.48599 -2.57207,-0.795 -6.47668,1.49573 -9.36091,5.49181 -0.45173,0.62586 -1.17041,1.58017 -1.59707,2.12069 -0.81004,1.0262 -2.49017,2.8277 -2.56624,2.75163 -0.0242,-0.0242 0.22825,-0.36826 0.56101,-0.76458 0.33276,-0.39631 1.29681,-1.68507 2.14234,-2.86389 1.98852,-2.77239 2.60376,-3.54315 3.64853,-4.57087 2.44379,-2.40392 4.79912,-3.07642 7.95629,-2.27171 3.79631,0.96762 9.9136,3.91333 13.13055,6.32286 2.73477,2.04838 6.1845,5.51268 8.31399,8.34911 1.16112,1.54658 2.01424,2.98208 3.21489,5.40952 3.08571,6.23857 5.5005,14.12828 6,19.60344 0.0597,0.65431 0.20191,2.58621 0.31604,4.29311 0.11413,1.70689 0.2793,3.88867 0.36704,4.84838 0.0877,0.95972 0.14073,1.76374 0.11775,1.78672 -0.023,0.023 -0.1417,-0.69242 -0.26384,-1.58977 z"
       id="path111986" />
    <path
       style="fill:#edb9ab;fill-opacity:1;fill-rule:evenodd;stroke-width:0.0512043;stroke-miterlimit:4;stroke-dasharray:none"
       d="m 161.54952,314.80536 c -0.62395,-0.20422 -1.51384,-0.64712 -1.87972,-0.93552 -0.14873,-0.11725 -0.35843,-0.39305 -0.46599,-0.6129 -0.1697,-0.34685 -0.19881,-0.50849 -0.22004,-1.22217 -0.0216,-0.72559 -0.0163,-0.77076 0.0449,-0.38355 0.13191,0.83448 0.43231,1.48255 0.88706,1.91375 0.35519,0.3368 1.52735,1.02776 1.99592,1.17654 0.39542,0.12557 0.53237,0.24122 0.27792,0.23471 -0.0704,-0.002 -0.35843,-0.0787 -0.64005,-0.17086 z"
       id="path112181" />
    <path
       style="fill:#ffffff;fill-opacity:1;fill-rule:evenodd;stroke-width:0.0512043;stroke-miterlimit:4;stroke-dasharray:none"
       d="m 159.24532,304.05943 c 0,-0.15 1.80155,-1.57452 2.32744,-1.84035 0.13347,-0.0675 0.30344,-0.11245 0.3777,-0.1 0.0904,0.0152 -0.30079,0.33725 -1.18258,0.97366 -1.54057,1.11186 -1.52256,1.10043 -1.52256,0.96664 z"
       id="path112220" />
    <path
       style="fill:#ffffff;fill-opacity:1;fill-rule:evenodd;stroke-width:0.0362069;stroke-miterlimit:4;stroke-dasharray:none"
       d="m 180.41379,334.82772 c -0.92157,-0.0645 -2.06592,-0.32074 -3.05757,-0.68478 -0.15325,-0.0563 -1.01182,-0.3622 -1.90794,-0.67988 -2.02483,-0.71779 -2.76043,-1.00368 -4.09431,-1.59126 -1.77746,-0.78297 -3.02254,-1.20744 -5.11259,-1.74298 C 165.22275,329.86781 165,329.78413 165,329.66247 c 0,-0.0419 0.018,-0.0763 0.0399,-0.0763 0.10151,0 2.2814,0.59891 3.27486,0.89975 1.80148,0.54552 2.96005,0.95588 6.51285,2.30685 2.91018,1.1066 4.09398,1.39048 5.98337,1.43484 2.41996,0.0568 3.82134,-0.23857 8.51232,-1.79419 2.09242,-0.69388 2.15948,-0.71237 2.15948,-0.5954 0,0.28929 -0.0735,0.35764 -0.57651,0.53638 -4.68295,1.66388 -6.99573,2.28229 -9.09934,2.43309 -0.72413,0.0519 -0.90256,0.0545 -1.39312,0.0202 z"
       id="path112296" />
    <path
       style="fill:#ffffff;fill-opacity:1;fill-rule:evenodd;stroke-width:0.0724138;stroke-miterlimit:4;stroke-dasharray:none"
       d="m 162.99126,329.37356 c -2.18699,-0.49943 -3.39322,-0.61147 -6.52574,-0.60613 -2.14431,0.004 -2.58853,-0.0235 -3.25862,-0.19895 -0.8839,-0.23147 -2.40742,-0.87692 -2.46292,-1.04344 -0.0721,-0.21643 0.6876,-0.10913 1.413,0.19955 1.30759,0.55643 2.73634,0.7744 6.08078,0.92769 2.86143,0.13115 6.52678,0.69307 6.63481,1.01715 0.0517,0.155 0.18444,0.17588 -1.88131,-0.29587 z"
       id="path112335" />
    <path
       style="fill:#ffffff;fill-opacity:1;fill-rule:evenodd;stroke-width:0.0724138;stroke-miterlimit:4;stroke-dasharray:none"
       d=""
       id="path112374" />
    <path
       style="fill:#ffffff;fill-opacity:1;fill-rule:evenodd;stroke-width:0.0724138;stroke-miterlimit:4;stroke-dasharray:none"
       d="m 191.60448,331.88793 c 0.0237,-0.12841 0.33415,-0.28045 1.06793,-0.52305 1.62037,-0.53573 6.7786,-2.0019 6.9003,-1.96133 0.0602,0.0201 -0.55996,0.23886 -1.37817,0.48619 -0.8182,0.24733 -2.62636,0.83884 -4.01813,1.31446 -1.39177,0.47562 -2.54734,0.86477 -2.56793,0.86477 -0.0206,0 -0.0224,-0.0815 -0.004,-0.18104 z"
       id="path112413" />
    <path
       style="fill:#ffffff;fill-opacity:1;fill-rule:evenodd;stroke-width:0.0256021;stroke-miterlimit:4;stroke-dasharray:none"
       d="m 198.71225,329.55797 c 0.0337,-0.0326 2.46714,-0.6735 4.23959,-1.11659 4.02015,-1.00499 6.25861,-1.43233 7.49777,-1.4314 0.88713,6.6e-4 1.20696,0.15478 1.20696,0.5816 v 0.14381 l -0.13716,-0.13706 c -0.17401,-0.17389 -0.37509,-0.22008 -0.958,-0.22008 -0.78039,0 -1.69786,0.12564 -3.23892,0.44355 -0.48278,0.0996 -1.60196,0.31261 -2.48707,0.47338 -2.41293,0.43828 -3.06734,0.58463 -4.74146,1.06039 -0.42027,0.11943 -0.77622,0.21599 -0.79099,0.21457 -0.0148,-10e-4 0.0472,-0.0363 0.13772,-0.0774 0.2487,-0.11312 0.11892,-0.11945 -0.28908,-0.0141 -0.34591,0.0893 -0.47347,0.11237 -0.43936,0.0794 z"
       id="path112452" />
    <path
       style="fill:#edb9ab;fill-opacity:1;fill-rule:evenodd;stroke-width:0.0256021;stroke-miterlimit:4;stroke-dasharray:none"
       d="m 158.9893,304.37866 c 0,-0.0154 0.0576,-0.0838 0.12801,-0.15206 0.14761,-0.14307 0.16314,-0.19842 0.0457,-0.16294 -0.10345,0.0312 -0.10802,0.0356 0.42975,-0.40793 1.06549,-0.87875 1.84009,-1.43963 2.09163,-1.51452 0.0767,-0.0228 0.21145,-0.0361 0.29948,-0.0296 l 0.16007,0.0119 -1.03786,0.74855 c -0.57082,0.41169 -1.28061,0.92539 -1.57732,1.14153 -0.29671,0.21615 -0.53948,0.38041 -0.53948,0.36502 z"
       id="path120238" />
  </g>
</svg>
