<?xml version="1.0" encoding="UTF-8" standalone="no"?>
<!-- Created with Inkscape (http://www.inkscape.org/) -->

<svg
   width="7.9030223mm"
   height="6.4978366mm"
   viewBox="0 0 7.9030223 6.4978366"
   version="1.1"
   id="svg5"
   inkscape:version="1.1.1 (1:1.1+202109281949+c3084ef5ed)"
   sodipodi:docname="chevronup.svg"
   xmlns:inkscape="http://www.inkscape.org/namespaces/inkscape"
   xmlns:sodipodi="http://sodipodi.sourceforge.net/DTD/sodipodi-0.dtd"
   xmlns="http://www.w3.org/2000/svg"
   xmlns:svg="http://www.w3.org/2000/svg">
  <sodipodi:namedview
     id="namedview7"
     pagecolor="#ffffff"
     bordercolor="#666666"
     borderopacity="1.0"
     inkscape:pageshadow="2"
     inkscape:pageopacity="0.0"
     inkscape:pagecheckerboard="0"
     inkscape:document-units="mm"
     showgrid="false"
     inkscape:zoom="6.943662"
     inkscape:cx="27.579108"
     inkscape:cy="19.730223"
     inkscape:window-width="1024"
     inkscape:window-height="706"
     inkscape:window-x="0"
     inkscape:window-y="25"
     inkscape:window-maximized="1"
     inkscape:current-layer="layer1" />
  <defs
     id="defs2" />
  <g
     inkscape:label="Capa 1"
     inkscape:groupmode="layer"
     id="layer1"
     transform="translate(-104.16351,-276.85825)">
    <path
       style="fill:#000000;fill-opacity:1;stroke:#000000;stroke-width:0.264583"
       id="path186"
       d="m 105.55196,282.60849 c 0.87954,-1.44939 1.69465,-2.93675 2.47306,-4.44254 -0.64459,0.13083 0.96028,-0.9755 0.60304,-0.90848 -0.25617,0.048 -0.51359,0.21294 -0.6495,0.43535 -0.0576,0.0943 0.22062,0.0561 0.30711,0.12496 0.33685,0.268 0.59089,0.72649 0.81711,1.07019 0.71459,1.17628 1.20876,2.45636 1.67484,3.74454 0.11154,0.45749 0.52145,-0.0718 0.70604,0.20421 0,0 0.0705,-0.0378 0.0705,-0.0378 v 0 c 0.0377,-0.33771 0.53444,-0.39976 0.33301,-0.79235 -0.65647,-1.19967 -1.31001,-2.39831 -1.89879,-3.63405 -0.10197,-0.17216 -0.80729,-1.47471 -1.1308,-1.37663 -1.05864,0.321 -1.3211,0.75004 -1.74831,1.58353 -0.76659,1.53117 -1.53169,3.07547 -2.5489,4.45995 0,0 0.99155,-0.43092 0.99155,-0.43092 z" />
  </g>
</svg>
