<?xml version="1.0" encoding="UTF-8" standalone="no"?>
<!-- Created with Inkscape (http://www.inkscape.org/) -->

<svg
   version="1.1"
   id="svg2"
   width="329.84"
   height="223.67999"
   viewBox="0 0 329.84 223.67999"
   sodipodi:docname="mik_caminante_horizonte.svg"
   inkscape:version="1.1.1 (1:1.1+202109281949+c3084ef5ed)"
   xmlns:inkscape="http://www.inkscape.org/namespaces/inkscape"
   xmlns:sodipodi="http://sodipodi.sourceforge.net/DTD/sodipodi-0.dtd"
   xmlns="http://www.w3.org/2000/svg"
   xmlns:svg="http://www.w3.org/2000/svg">
  <defs
     id="defs6" />
  <sodipodi:namedview
     id="namedview4"
     pagecolor="#ffffff"
     bordercolor="#666666"
     borderopacity="1.0"
     inkscape:pageshadow="2"
     inkscape:pageopacity="0.0"
     inkscape:pagecheckerboard="0"
     showgrid="false"
     inkscape:zoom="0.70710678"
     inkscape:cx="184.55487"
     inkscape:cy="134.35029"
     inkscape:window-width="1024"
     inkscape:window-height="706"
     inkscape:window-x="0"
     inkscape:window-y="25"
     inkscape:window-maximized="1"
     inkscape:current-layer="g22970"
     inkscape:lockguides="true"
     width="319.84px" />
  <g
     inkscape:groupmode="layer"
     id="layer1"
     inkscape:label="Image 1"
     style="display:inline">
    <g
       id="g22970"
       transform="translate(79.913238,0.97232055)">
      <path
         style="fill:none;stroke:#000000;stroke-width:1px;stroke-linecap:butt;stroke-linejoin:miter;stroke-opacity:1"
         d="m 42.924027,1.2125385 c -0.180603,3.45381 -3.812581,5.0737835 -2.358997,8.5622555 0.440985,1.058322 1.20514,2.237434 1.467067,3.337437 0.299546,1.257995 -1.474571,1.082447 -1.130867,2.457235 0.225197,0.900774 1.925397,1.017459 2.261726,1.723733 0.338847,0.71156 -1.189511,2.444943 -0.64184,2.970693 0.975246,0.936212 2.722417,-1.074345 2.597926,-0.47678 -0.262767,1.261309 -1.906235,2.373494 -2.56736,3.484145 -0.428126,0.719225 -0.809444,3.088292 -1.833831,3.190737 -0.194282,0.01943 -1.014048,0.127108 -0.916916,0.476779 0.424461,1.52804 2.768157,-0.351328 3.025822,1.503683 0.317511,2.285862 -3.564859,3.240814 -3.759358,5.574628 -0.114337,1.371941 0.331643,2.648757 0.366772,3.997589 0.07055,2.708727 0.141832,5.394815 0.244509,8.105213 0.06115,1.61429 -0.244509,3.200578 -0.244509,4.804448 0,5.091516 -0.238903,11.504964 0.39733,16.467149 0.204661,1.59622 -0.234676,3.122944 -0.152821,4.694427 0.07069,1.35705 0.429522,2.744897 1.008605,3.96091 1.103117,2.316427 1.00909,6.130605 1.222557,8.692015 0.280443,3.365063 -0.613994,6.519315 -0.702971,9.828953 -0.09646,3.587883 0.392358,7.234462 0.244509,10.782502 -0.21904,5.25647 -0.441448,10.66848 0.183386,15.91701 0.20088,1.68737 1.115078,3.21197 1.37537,4.8778 0.53695,3.43642 0.733537,7.26027 0.733537,10.74582 0,0.91775 -0.304363,1.71462 -0.427896,2.60395 -0.08507,0.6124 0.678127,7.85528 0.947481,8.17857 0.366509,0.4399 0.809224,2.91973 1.281975,3.23083 1.520973,1.00088 6.003095,2.7014 6.643629,4.43082 1.110271,2.9977 -3.386441,4.54554 -3.004828,7.52186 0.02331,0.18177 1.18224,1.02016 1.314253,1.21027 1.135903,1.63577 1.650158,5.0238 2.475671,7.00498 0.748812,1.79709 -0.680175,3.70681 -0.0917,5.35457 0.552676,1.54752 5.157779,0.93328 5.157779,0.93328"
         id="path861"
         sodipodi:nodetypes="csssssssssssssssssssssssssssssssc" />
      <path
         style="fill:none;stroke:#000000;stroke-width:1px;stroke-linecap:butt;stroke-linejoin:miter;stroke-opacity:1"
         d="m 58.040037,177.36005 c 0.169631,-0.0217 1.496294,0.2317 2.146983,0.75377 0.484598,0.38881 8.373198,-0.34601 9.688733,-0.69683 1.666978,-0.44454 6.673172,0.65803 8.588446,1.06358 0.775418,0.1642 2.100548,0.80881 2.873001,0.14669 3.264885,-2.79853 1.404665,-5.22695 1.650452,-8.47196 0.161385,-2.13069 1.100301,-4.22898 1.100301,-6.38149 0,-0.72053 -0.534205,-1.36501 -0.580723,-2.09047 -0.177049,-2.7611 0.24451,-5.63187 0.24451,-8.39862 0,-3.16908 -2.2808,-5.09382 -2.078341,-8.25192 0.195751,-3.05344 3.077303,-5.88924 4.645715,-8.3986 1.197275,-1.91556 1.984913,-5.17823 2.322851,-7.40839 0.407026,-2.68609 0.260017,-5.72571 -0.09169,-8.39861 -0.09861,-0.74943 -0.78361,-1.31348 -0.88635,-2.12715 -0.236915,-1.87628 0.0315,-3.80435 -0.152821,-5.68465 -0.414884,-4.2324 -0.09462,-8.73665 0.09169,-12.98302 0.217103,-4.948338 -0.309964,-9.914819 0.03056,-14.816765 0.08117,-1.168415 0.324168,-2.343127 0.275082,-3.520823 -0.158638,-3.806174 -1.053497,-7.59853 -1.130873,-11.405966 -0.04404,-2.167266 0.23928,-4.312415 0.15282,-6.491509 -0.05663,-1.427164 -0.745324,-2.812769 -0.916908,-4.254325 -0.26788,-2.25058 0.708816,-4.858303 0.64184,-7.188332 -0.135874,-4.72691 -0.759384,-9.199138 -0.427903,-13.973243 0.206213,-2.969958 -2.2106,-4.964387 -1.711569,-7.958499 0.369715,-2.218234 2.273976,-3.844352 2.536802,-6.051408 0.168194,-1.412393 -2.626286,-2.072017 -2.383982,-4.107618 0.121205,-1.01824 1.545691,-1.891424 2.170031,-2.640614 1.312615,-1.5751 2.143721,-3.839978 2.475671,-5.83135 C 89.716481,9.3796245 89.637249,7.9984156 89.248438,5.5723522 89.058451,4.386894 88.09846,1.6284255 88.363697,1.1191952"
         id="path867"
         sodipodi:nodetypes="cssssssssssssssssssssssssssssc" />
      <path
         style="fill:none;stroke:#000000;stroke-width:1px;stroke-linecap:butt;stroke-linejoin:miter;stroke-opacity:1"
         d="m 46.861184,13.36896 c 5.836967,-2.301344 -0.190601,0.153577 3.14807,-1.356982 1.545208,-0.699119 3.390987,-0.387277 4.859652,-1.246953 1.0555,-0.617832 3.210664,-3.0896885 4.492895,-2.8973429 0.562407,0.084366 0.258141,1.2282302 0.73353,1.5403609 0.342585,0.2249348 0.774279,0.2689484 1.161418,0.4034226"
         id="path869" />
      <path
         style="fill:none;stroke:#000000;stroke-width:1px;stroke-linecap:butt;stroke-linejoin:miter;stroke-opacity:1"
         d="M 81.276069,9.4813932 C 77.190802,4.78147 74.443205,7.6541691 70.578724,6.5840503"
         id="path875" />
      <path
         style="fill:none;stroke:#000000;stroke-width:1px;stroke-linecap:butt;stroke-linejoin:miter;stroke-opacity:1"
         d="m 80.45085,19.60374 c -0.957667,0.244501 -1.917706,0.479895 -2.873001,0.733502 -0.589203,0.156419 -5.93203,3.111021 -3.851041,3.850889 2.201779,0.782814 8.192823,-1.535655 9.627602,-0.440101 0.263691,0.201346 0.279184,1.012549 0.489033,1.32031"
         id="path885" />
      <path
         style="fill:none;stroke:#000000;stroke-width:1px;stroke-linecap:butt;stroke-linejoin:miter;stroke-opacity:1"
         d="m 63.80058,14.884424 c 0.467871,-0.42555 1.031929,-0.290796 1.574038,-0.485946 0.6203,-0.223298 1.132202,-0.732369 1.82237,-0.788516 0.527438,-0.04291 1.054327,5.02e-4 1.581678,0.0092 0.435359,0.0072 0.890483,-0.01698 1.321887,0.04126 0.237292,0.03203 0.464909,0.106979 0.702968,0.132947 0.62842,0.06855 1.365605,0.03504 1.986651,-0.0596 0.319421,-0.04867 0.647802,0.06023 0.955119,-0.05501"
         id="path887" />
      <path
         style="fill:none;stroke:#000000;stroke-width:1px;stroke-linecap:butt;stroke-linejoin:miter;stroke-opacity:1"
         d="m 58.018818,166.99673 c 1.611986,5.20709 6.02553,-0.25583 9.120226,0.36307 1.508748,0.30172 -1.893293,3.07466 -3.068887,3.21571"
         id="path891" />
      <path
         style="fill:none;stroke:#000000;stroke-width:1px;stroke-linecap:butt;stroke-linejoin:miter;stroke-opacity:1"
         d="m 72.261067,159.42421 c 7.885863,-1.27548 3.135309,3.50381 5.467812,7.70218"
         id="path897" />
      <g
         id="g21573">
        <path
           style="fill:none;stroke:#000000;stroke-width:1px;stroke-linecap:butt;stroke-linejoin:miter;stroke-opacity:1"
           d="m 81.265695,179.19993 c -0.08522,2.34294 0.124694,4.72163 -0.107179,7.05902 -0.0484,0.48788 -0.09903,2.56192 -0.129974,3.05292 -0.101489,1.6105 -0.247766,5.1941 -0.653687,7.35114 -0.235931,1.25372 -0.409461,0.42064 -1.33603,1.41335 -0.308631,0.33066 -0.671988,0.63749 -1.071757,0.84308 -1.904956,0.9797 -8.229842,1.13833 -10.254295,0.97851 -0.716537,-0.0566 -1.525807,-0.32644 -2.244489,-0.35258 -3.646855,-0.13262 -7.384535,0.15057 -10.794011,-1.44043 -1.863218,-0.86945 -2.899068,-1.80089 -4.549006,-3.00079 -1.384573,-1.00692 -3.032424,-1.68262 -4.406098,-2.70072 -1.094773,-0.81139 -1.870593,-1.82994 -2.869921,-2.72929 -1.677876,-1.51002 -3.709557,-2.18533 -3.524882,-4.84414 0.03781,-0.54436 0.772763,-1.07993 1.024122,-1.17174 3.242241,-1.18428 5.217252,-2.14462 7.597546,-4.20111 0.450946,-0.3896 1.006481,-0.73111 1.452019,-1.11786 0.384005,-0.33333 0.605514,-0.6186 0.989202,-0.92554 0.267976,-0.21437 0.481896,-0.48966 0.750227,-0.70019 0.201419,-0.15803 1.119388,-1.23336 1.119388,-0.77163"
           id="path2633"
           sodipodi:nodetypes="csssssssssssssssssc" />
        <path
           style="fill:none;stroke:#000000;stroke-width:1px;stroke-linecap:butt;stroke-linejoin:miter;stroke-opacity:1"
           d="m 39.562533,186.84481 c 0.06988,0.98798 0.05399,1.97437 0.603498,2.85996 0.599168,0.96563 0.896931,1.66574 1.516331,2.23748 0.546557,0.5045 0.88885,0.99109 1.533588,1.4131 0.511061,0.33451 0.907206,0.57951 1.455278,0.84856 0.570081,0.27985 1.03712,0.78656 1.583815,1.11458 0.283899,0.17033 0.601973,0.25129 0.881219,0.42868 0.309975,0.19692 2.095205,1.29398 2.095205,1.29398 v 0"
           id="path2635"
           sodipodi:nodetypes="csssssscc" />
        <path
           style="fill:none;stroke:#000000;stroke-width:1px;stroke-linecap:butt;stroke-linejoin:miter;stroke-opacity:1"
           d="m 49.155196,194.80356 c -0.200706,1.00978 0.0517,2.02854 0.01786,3.04367 -0.02479,0.74363 -0.0821,1.96066 0.202443,2.64356 0.342158,0.82115 2.130272,2.93557 2.935417,3.37946 0.272905,0.15046 0.69533,0.33359 1.006257,0.38582 0.319348,0.0536 0.589329,0.169 0.896867,0.29198 0.89388,0.35754 1.816016,0.752 2.77687,0.90833 0.463423,0.0754 0.964772,0.13351 1.430601,0.16601 0.88642,0.0618 1.71344,0.21987 2.612294,0.13407 0.3342,-0.0319 0.89793,0.0262 0.89793,0.0262 0,0 1.714121,-0.0698 2.402077,-0.1193 0.654015,-0.0471 0.981734,-0.0149 1.636753,-0.0149 0.387163,0 0.851257,0.0644 1.241944,0.0491 1.216495,-0.0476 2.064475,-0.044 3.284936,-0.1317 0.907332,-0.0653 2.09168,0.0126 3.006389,-0.0647 0.776955,-0.0657 1.905226,-0.007 2.675472,-0.15378 1.006523,-0.19189 2.384978,-0.68591 3.239082,-1.25033 0.388202,-0.25654 0.318077,-1.83342 0.400892,-2.25575 0.06446,-0.32872 0.160589,-3.81129 0.01771,-4.19705"
           id="path3991"
           sodipodi:nodetypes="csssccscscssscssssc" />
      </g>
      <path
         style="fill:none;stroke:#000000;stroke-width:1.2;stroke-linecap:butt;stroke-linejoin:miter;stroke-miterlimit:4;stroke-dasharray:none;stroke-opacity:1"
         d="m 129.90744,1.2117199 c -0.15413,1.1393061 -2.10159,4.9585211 -0.81261,6.5052777 0.58082,0.6969748 2.9622,1.307506 3.04855,2.3434784 0.15375,1.844406 -1.5229,3.716946 -0.0953,5.430013 0.74976,0.899669 4.09649,1.375854 4.09649,2.514947 0,2.91247 -1.86306,5.490004 -1.57192,8.459386 0.39031,3.980744 1.76113,7.947182 2.19115,11.946022 0.66152,6.151471 1.12208,12.758794 2.38168,18.804966 0.88347,4.240747 5.10956,6.458129 6.38288,11.260127 1.06517,4.016976 0.46029,8.730554 0.85741,12.860548 0.2958,3.076325 1.25302,6.440774 2.0006,9.431054 1.97548,7.90176 8.16858,14.209851 10.14596,22.005831 2.4883,9.81037 -2.31622,10.37199 -3.64272,18.86142 -1.23249,7.88778 -2.04087,17.41208 2.73768,24.29285 1.23748,1.78188 2.13084,3.61497 4.23939,4.45832 2.5025,-5.00525 14.9949,-17.88985 20.99285,-18.9181 1.86136,-0.3191 9.53031,-0.36619 10.91806,0.3541 1.67418,0.86896 2.66339,1.85552 4.03071,3.17897 2.23051,2.15892 4.32032,5.30922 6.16643,7.72587 1.04122,1.36301 2.33405,3.31517 2.33405,3.31517 v 0 0 c 0,0 0.26794,-0.29576 0.24245,-0.46657 -0.1974,-1.32292 -0.75285,-2.78683 -0.62347,-4.10606 0.48707,-4.96773 3.3533,-7.3451 5.95419,-11.31729 5.12814,-7.83193 0.27711,-11.48465 -2.95329,-18.46203 -2.51,-5.42141 -4.57956,-12.2393 -5.66837,-18.11908 -2.26804,-12.247736 -2.05567,-24.319822 -2.39927,-36.691064 -0.0843,-3.035939 -0.62792,-5.754776 -0.91968,-8.730424 -0.60826,-6.203604 -1.80462,-12.557569 -3.15921,-18.652614 -0.99872,-4.493763 -1.04915,-9.177299 -2.66749,-13.546442 -1.84856,-4.990702 -7.1329,-12.502387 -7.90715,-17.1474043 -0.48396,-2.9033903 0.0423,-7.2450397 0.0423,-7.2450397"
         id="path6938"
         sodipodi:nodetypes="cssssssssssssscsssscccscssssssssc" />
      <path
         style="fill:none;stroke:#000000;stroke-width:1px;stroke-linecap:butt;stroke-linejoin:miter;stroke-opacity:1"
         d="m 186.13466,70.705719 c -0.51087,7.480353 4.77903,13.650451 5.92804,20.774231 0.40776,2.528132 -0.5061,5.141456 -0.0674,7.598358"
         id="path9972" />
      <path
         style="fill:none;stroke:#000000;stroke-width:1px;stroke-linecap:butt;stroke-linejoin:miter;stroke-opacity:1"
         d="m 163.19722,129.71423 c 2.11132,-6.03068 7.35908,-9.2855 12.56338,-12.40796 1.32149,-0.79286 4.11853,-2.93497 5.65859,-2.62707 1.23452,0.24681 3.61763,3.58908 5.35544,4.28418 1.21272,0.48507 2.50158,-0.30709 3.57028,0.24249"
         id="path9974" />
      <path
         style="fill:none;stroke:#000000;stroke-width:1px;stroke-linecap:butt;stroke-linejoin:miter;stroke-opacity:1"
         d="m 183.37274,131.61383 c 3.24274,-1.73616 18.52416,-5.37702 20.71442,-1.53583 1.32225,2.31891 -2.33547,5.51956 -2.9977,7.63877 -0.66899,2.14083 1.14519,3.8859 1.14519,5.82"
         id="path9976" />
      <path
         style="fill:none;stroke:#000000;stroke-width:1.001;stroke-linecap:butt;stroke-linejoin:miter;stroke-miterlimit:4;stroke-dasharray:none;stroke-opacity:1"
         d="m 206.30878,156.04197 c -0.65693,-0.0251 -0.30208,1.60608 -0.95948,1.60948 -0.34577,0.002 -0.008,3.99584 -0.008,3.99584 0.2344,3.23437 0.13661,5.88124 0.7764,9.08018 0.32688,1.63436 0.22128,3.37656 0.53012,5.04434 0.1846,0.99682 -1.88712,6.51907 -1.34485,6.88062"
         id="path9978"
         sodipodi:nodetypes="cccssc" />
      <g
         id="g21580"
         style="stroke-width:1.3;stroke-miterlimit:4;stroke-dasharray:none">
        <path
           style="fill:none;stroke:#000000;stroke-width:1.3013;stroke-linecap:butt;stroke-linejoin:miter;stroke-miterlimit:4;stroke-dasharray:none;stroke-opacity:1"
           d="m 161.86668,160.38596 c 0.12747,1.25188 -0.0489,2.74407 -1.25629,3.46845 -0.82536,0.49519 -2.54115,0.15035 -2.5484,0.22863 -0.0526,0.56802 0.38272,1.23513 0.52398,1.7719 0.30161,1.14613 0.12439,2.40815 0.35724,3.57238 0.13023,0.65111 0.43009,1.28996 0.52398,1.94337 0.50546,3.51787 0.31966,7.40129 -0.28581,10.8886 -0.36219,2.08614 -0.71242,4.23879 -1.30992,6.28737 -0.63599,2.18053 -1.73264,4.14756 -2.26259,6.37311 -0.34038,1.42945 0.60896,2.54781 0.11909,3.94391 -1.91727,5.46409 -4.09787,4.39258 -3.02474,11.08865 0.57353,3.57864 1.76631,4.65095 3.35817,7.51627 0.34737,0.62526 1.84373,2.10366 1.40519,2.48637 0.59131,0.24093 0.26495,0.71305 0.86579,0.89918 6.1793,1.91417 13.75355,0.82621 20.23586,0.47261 4.57168,-0.24938 9.21407,0.19029 13.81372,-0.25721 0.98321,-0.0957 2.04106,-0.26575 3.01577,-0.38271 1.2558,-0.1507 2.45556,-0.26609 3.67675,-0.58897 0.34498,-0.0912 3.02171,-0.13853 4.63785,-0.93661 1.49703,-0.73926 1.9456,-2.22541 2.14992,-2.49287 1.38447,-1.81234 0.0935,-12.105 -0.80977,-14.48955 -0.49229,-1.29958 -0.73221,-2.91217 -0.40488,-4.28685 0.0761,-0.31947 0.1317,-1.60863 0.0476,-0.60016"
           id="path9980"
           sodipodi:nodetypes="cssssssssssscsssssssssc" />
        <path
           style="fill:none;stroke:#000000;stroke-width:1.3013;stroke-linecap:butt;stroke-linejoin:miter;stroke-miterlimit:4;stroke-dasharray:none;stroke-opacity:1"
           d="m 157.46658,219.95497 c 0.0442,0.0707 0.0916,0.1397 0.13961,0.20838 0.13328,0.19052 0.36054,0.59183 0.36054,0.59183 0.0566,0.13575 -1.23844,-0.58528 -0.8574,-1.11457 0,0 2.49723,-2.22304 3.66778,-3.25801 3.36354,-2.97394 8.01783,-6.57089 8.69312,-11.4316 0.19737,-1.42068 0.24443,-2.92586 0.0429,-4.29768 -0.0781,-0.53139 -0.13424,-1.20018 -0.21668,-1.72238 -0.0504,-0.31915 -0.27968,-0.39532 -0.23111,-0.72458 5.19533,-1.25251 9.99092,-2.59829 15.37457,-2.77291 1.62206,-0.0526 3.77282,-0.20834 5.39917,-0.31677 3.57434,-0.23828 6.99466,-0.39713 10.56912,-0.11116 1.05718,0.0846 2.18269,0.2222 3.21527,0.42868 0.27082,0.0542 0.51397,0.17104 0.78596,0.22863 0.0957,0.0203 0.23671,-0.26929 0.23816,-0.17148 0.009,0.6003 0.0317,1.20032 0.0476,1.80048"
           id="path9982"
           sodipodi:nodetypes="csscsssscssssscc" />
        <path
           style="fill:none;stroke:#000000;stroke-width:1.3013;stroke-linecap:butt;stroke-linejoin:miter;stroke-miterlimit:4;stroke-dasharray:none;stroke-opacity:1"
           d="m 169.06534,198.20636 c 0.0354,-2.67715 -1.5701,-14.50392 0.40489,-16.34718 4.9158,-4.58793 15.28464,-6.25033 21.68324,-5.90651 4.27513,0.22972 8.79345,0.0138 11.94603,4.04887 2.9827,3.81766 1.2759,12.55675 1.59569,17.29029"
           id="path9990"
           sodipodi:nodetypes="csssc" />
        <path
           style="fill:none;stroke:#000000;stroke-width:1.3013;stroke-linecap:butt;stroke-linejoin:miter;stroke-miterlimit:4;stroke-dasharray:none;stroke-opacity:1"
           d="m 168.47975,184.10534 c -0.3061,-1.76695 -0.47871,-5.63575 0.56178,-7.16175 1.04918,-1.53877 2.85913,-2.98221 4.48302,-3.58923 6.40869,-2.39557 10.70661,-2.69543 17.22322,-2.69543 2.5861,0 6.62237,0.2781 9.08883,1.08329 2.49582,0.81477 4.31684,3.22641 4.59664,5.74438 0.11436,1.02912 0.23817,2.04672 0.23817,3.08652 0,0.33482 0.0841,0.67414 0.16672,0.97169 0.0253,0.091 -0.1939,0.31492 -0.11909,0.25721 0.81673,-0.63003 0.14213,-0.10912 0,0"
           id="path9992"
           sodipodi:nodetypes="cssssssssc" />
        <path
           style="fill:none;stroke:#000000;stroke-width:1.3;stroke-linecap:butt;stroke-linejoin:miter;stroke-miterlimit:4;stroke-dasharray:none;stroke-opacity:1"
           d="m 162.88643,170.50827 c -0.25164,3.53123 0.0502,8.28744 0.22582,11.82731 0.0524,1.05681 0.22073,3.88257 0.68659,4.84821"
           id="path9998"
           sodipodi:nodetypes="csc" />
      </g>
      <g
         id="g15202"
         style="opacity:0.594232;stroke-width:0.7;stroke-miterlimit:4;stroke-dasharray:none">
        <path
           style="display:inline;opacity:1;fill:none;stroke:#000000;stroke-width:0.69999999;stroke-linecap:butt;stroke-linejoin:miter;stroke-miterlimit:4;stroke-dasharray:16.79999971,0.69999999;stroke-opacity:1;stroke-dashoffset:0"
           d="m -77.21345,133.12721 c 1.445287,-0.15568 4.324276,-3.62741 7.821419,-3.60362 6.046364,0.0411 13.987263,2.5393 24.988192,1.82229 11.677737,-0.76113 22.786772,-1.58831 35.0472723,-2.53913 18.7905705,-1.45725 37.9273797,-1.81118 42.0429377,-1.10561 3.061338,0.52483 7.347412,-0.91529 10.38314,-0.18666"
           id="path14024"
           sodipodi:nodetypes="cssssc" />
        <path
           style="fill:none;stroke:#000000;stroke-width:0.69999999;stroke-linecap:butt;stroke-linejoin:miter;stroke-miterlimit:4;stroke-dasharray:16.79999971,0.69999999;stroke-opacity:1;stroke-dashoffset:0"
           d="m 88.965832,126.91205 c 7.651756,-0.59212 16.422398,0.38605 24.102948,0.18994 3.61861,-0.0924 7.09786,-1.36403 10.71087,-1.49542 4.30547,-0.15657 8.67233,0.10889 12.96757,-0.24251 1.52143,-0.12447 19.19873,-2.10167 19.19873,-2.10167 l 2.12009,-0.12842"
           id="path14141"
           sodipodi:nodetypes="cssscc" />
        <path
           style="fill:none;stroke:#000000;stroke-width:0.69999999;stroke-linecap:butt;stroke-linejoin:miter;stroke-miterlimit:4;stroke-dasharray:16.79999971,0.69999999;stroke-opacity:1;stroke-dashoffset:0"
           d="m 207.84991,120.27154 c 1.77895,-0.5165 12.88019,-1.7304 22.46941,-1.81715 8.73182,-0.079 16.01077,0.98477 17.7485,0.29147"
           id="path14143"
           sodipodi:nodetypes="csc" />
      </g>
    </g>
  </g>
</svg>
